<svg width="1280" height="832" viewBox="0 0 1280 832" fill="none" xmlns="http://www.w3.org/2000/svg">
<ellipse cx="640" cy="416" rx="189" ry="176" fill="white"/>
<path d="M788 416.5C788 496.857 721.962 562 640.5 562C559.038 562 493 496.857 493 416.5C493 336.143 559.038 271 640.5 271C721.962 271 788 336.143 788 416.5Z" fill="#EA2121"/>
<ellipse cx="640.5" cy="416.5" rx="116.5" ry="115.5" fill="white"/>
<path d="M549 452.8C544.333 452.8 540.867 452.133 538.6 450.8C536.333 449.333 534.867 447.733 534.2 446C533.533 444.267 533.2 442.933 533.2 442C533.2 440.267 533.8 438.8 535 437.6C536.2 436.4 537.867 435.8 540 435.8C541.067 435.8 542.067 436.133 543 436.8C543.8 437.333 544.2 438.2 544.2 439.4C544.2 440.733 543.733 441.733 542.8 442.4C541.867 442.933 540.8 443.2 539.6 443.2C538.667 443.2 537.867 443.133 537.2 443C536.533 442.733 536.2 442.6 536.2 442.6C536.2 444.333 537.067 446.133 538.8 448C540.533 449.733 543.467 450.6 547.6 450.6C553.733 450.6 559.333 448.867 564.4 445.4C569.467 441.8 574.267 437.2 578.8 431.6C583.333 426 587.8 420 592.2 413.6C596.6 407.2 601.2 401.067 606 395.2C612.4 387.333 618.933 380 625.6 373.2C632.267 366.267 639.067 360.333 646 355.4C652.933 350.333 660 346.8 667.2 344.8C668.267 344.533 668.867 344.733 669 345.4C669.133 346.067 668.667 346.533 667.6 346.8C661.867 348.4 656.267 351.467 650.8 356C645.333 360.533 639.933 366.067 634.6 372.6C629.4 379 624.133 385.867 618.8 393.2C613.6 400.4 608.267 407.533 602.8 414.6C597.467 421.667 591.933 428.067 586.2 433.8C580.467 439.533 574.533 444.133 568.4 447.6C562.267 451.067 555.8 452.8 549 452.8ZM619.8 409C611.933 409 605.8 407.933 601.4 405.8C597 403.667 594.8 400.8 594.8 397.2C594.8 395.333 595.4 393.867 596.6 392.8C597.8 391.6 599.133 390.8 600.6 390.4C602.2 389.867 603.467 389.6 604.4 389.6C605.2 389.6 605.6 389.867 605.6 390.4C605.6 390.8 605.267 391.067 604.6 391.2C602.867 391.467 601.267 392.333 599.8 393.8C598.467 395.133 597.8 396.4 597.8 397.6C597.8 399.333 599.467 401.333 602.8 403.6C606.267 405.867 611.6 407 618.8 407C622.4 407 626.533 406.2 631.2 404.6C635.867 402.867 640.333 400.333 644.6 397C649 393.533 652.6 389.333 655.4 384.4C658.2 379.333 659.6 373.467 659.6 366.8C659.6 359.333 656.267 354.067 649.6 351C643.067 347.8 634.067 346.2 622.6 346.2C613.133 346.2 604.133 347.6 595.6 350.4C587.067 353.2 579.467 356.8 572.8 361.2C566.267 365.6 561.067 370.333 557.2 375.4C553.467 380.467 551.6 385.267 551.6 389.8C551.6 394.333 552.667 397.6 554.8 399.6C557.067 401.6 559.733 402.6 562.8 402.6C566.533 402.6 570.267 401.467 574 399.2C577.867 396.8 581.467 393.8 584.8 390.2C588.133 386.467 591.133 382.6 593.8 378.6C596.467 374.467 598.6 370.667 600.2 367.2C601.8 363.733 602.667 361.067 602.8 359.2C602.933 357.867 603.2 357.2 603.6 357.2C604.133 357.2 604.467 357.667 604.6 358.6C605 362.733 604.267 367.467 602.4 372.8C600.667 378 597.933 383.067 594.2 388C590.6 392.8 586.133 396.8 580.8 400C575.467 403.2 569.533 404.8 563 404.8C558.867 404.8 555.533 403.533 553 401C550.467 398.333 549.2 394.533 549.2 389.6C549.2 384.8 551.133 379.8 555 374.6C558.867 369.267 564.2 364.333 571 359.8C577.8 355.267 585.6 351.6 594.4 348.8C603.333 345.867 612.733 344.4 622.6 344.4C634.2 344.4 643.333 345.733 650 348.4C656.8 351.067 661.6 354.6 664.4 359C667.333 363.267 668.8 367.8 668.8 372.6C668.8 376.333 667.533 380.333 665 384.6C662.6 388.867 659.2 392.867 654.8 396.6C650.4 400.2 645.2 403.2 639.2 405.6C633.333 407.867 626.867 409 619.8 409Z" fill="#EA2121"/>
<path d="M611.04 448.432C610.592 448.432 610.096 448.304 609.552 448.048C608.976 447.824 608.688 447.44 608.688 446.896C608.688 446.224 608.992 445.376 609.6 444.352C610.208 443.328 610.96 442.272 611.856 441.184C612.72 440.096 613.568 439.072 614.4 438.112C615.232 437.152 615.856 436.4 616.272 435.856C616.624 435.888 617.04 435.904 617.52 435.904C618.032 435.904 618.48 435.888 618.864 435.856C618.416 436.4 617.824 437.088 617.088 437.92C616.384 438.752 615.632 439.648 614.832 440.608C614.064 441.536 613.312 442.448 612.576 443.344C611.872 444.24 611.296 445.04 610.848 445.744C610.4 446.448 610.176 446.96 610.176 447.28C610.176 447.504 610.272 447.664 610.464 447.76C610.656 447.856 610.976 447.904 611.424 447.904C612.192 447.904 613.04 447.616 613.968 447.04C614.928 446.432 615.856 445.712 616.752 444.88C617.648 444.048 618.448 443.264 619.152 442.528C619.856 441.76 620.352 441.2 620.64 440.848L621.024 441.184C620.736 441.504 620.24 442.064 619.536 442.864C618.864 443.632 618.048 444.448 617.088 445.312C616.16 446.176 615.168 446.912 614.112 447.52C613.088 448.128 612.064 448.432 611.04 448.432ZM620.64 432.208C620.256 432.208 619.968 432.096 619.776 431.872C619.584 431.616 619.488 431.328 619.488 431.008C619.488 430.656 619.68 430.288 620.064 429.904C620.448 429.52 620.848 429.328 621.264 429.328C621.712 429.328 622.032 429.456 622.224 429.712C622.416 429.936 622.512 430.16 622.512 430.384C622.512 430.864 622.32 431.296 621.936 431.68C621.552 432.032 621.12 432.208 620.64 432.208ZM630.706 448.432C629.01 448.432 628.162 447.936 628.162 446.944C628.162 446.304 628.37 445.616 628.786 444.88C629.234 444.144 629.778 443.408 630.418 442.672C631.058 441.904 631.698 441.152 632.338 440.416C633.01 439.68 633.554 439.008 633.97 438.4C634.418 437.76 634.642 437.216 634.642 436.768C634.642 436.608 634.562 436.48 634.402 436.384C634.274 436.256 634.082 436.192 633.826 436.192C633.442 436.192 632.898 436.384 632.194 436.768C631.522 437.152 630.658 437.808 629.602 438.736C628.578 439.632 627.362 440.848 625.954 442.384C624.546 443.888 622.93 445.776 621.106 448.048C620.818 447.984 620.386 447.952 619.81 447.952C619.234 447.952 618.738 448.016 618.322 448.144C619.25 446.8 620.162 445.488 621.058 444.208C621.954 442.928 622.77 441.76 623.506 440.704C624.274 439.648 624.882 438.784 625.33 438.112C625.778 437.408 626.002 436.976 626.002 436.816C626.002 436.528 625.858 436.384 625.57 436.384C625.25 436.384 624.85 436.64 624.37 437.152C623.89 437.632 623.362 438.256 622.786 439.024C622.21 439.76 621.618 440.512 621.01 441.28L620.578 440.992C621.218 440.256 621.842 439.488 622.45 438.688C623.058 437.888 623.682 437.2 624.322 436.624C624.962 436.048 625.634 435.76 626.338 435.76C626.69 435.76 627.01 435.856 627.298 436.048C627.618 436.208 627.778 436.48 627.778 436.864C627.778 437.216 627.634 437.648 627.346 438.16C627.09 438.64 626.738 439.2 626.29 439.84C625.842 440.448 625.33 441.136 624.754 441.904C624.21 442.64 623.634 443.44 623.026 444.304L623.074 444.592C624.77 442.736 626.194 441.232 627.346 440.08C628.53 438.928 629.506 438.048 630.274 437.44C631.074 436.8 631.762 436.368 632.338 436.144C632.946 435.888 633.522 435.76 634.066 435.76C634.802 435.76 635.33 435.92 635.65 436.24C635.97 436.528 636.13 436.928 636.13 437.44C636.13 438.208 635.906 439.024 635.458 439.888C635.01 440.72 634.45 441.552 633.778 442.384C633.138 443.184 632.482 443.936 631.81 444.64C631.17 445.312 630.626 445.888 630.178 446.368C629.73 446.848 629.506 447.168 629.506 447.328C629.506 447.52 629.554 447.664 629.65 447.76C629.778 447.856 630.082 447.904 630.562 447.904C631.746 447.904 632.866 447.536 633.922 446.8C635.01 446.064 636.05 445.168 637.042 444.112C638.034 443.024 638.962 441.952 639.826 440.896L640.21 441.232C639.346 442.256 638.402 443.328 637.378 444.448C636.354 445.568 635.282 446.512 634.162 447.28C633.042 448.048 631.89 448.432 630.706 448.432ZM638.214 449.104C637.094 449.104 636.246 448.896 635.67 448.48C635.094 448.064 634.806 447.504 634.806 446.8C634.806 446.288 634.982 445.84 635.334 445.456C635.654 445.04 636.038 444.72 636.486 444.496C636.934 444.24 637.286 444.112 637.542 444.112C637.894 444.112 638.134 444.192 638.262 444.352C638.358 444.48 638.406 444.624 638.406 444.784C638.406 445.04 638.262 445.248 637.974 445.408C637.654 445.568 637.398 445.648 637.206 445.648C636.982 445.648 636.79 445.584 636.63 445.456C636.438 445.296 636.342 445.216 636.342 445.216C636.182 445.248 635.958 445.424 635.67 445.744C635.382 446.064 635.238 446.416 635.238 446.8C635.238 447.184 635.446 447.552 635.862 447.904C636.278 448.256 636.95 448.432 637.878 448.432C638.838 448.432 639.75 448.112 640.614 447.472C641.51 446.832 642.246 446.016 642.822 445.024C643.398 444.032 643.686 443.024 643.686 442C643.686 441.648 643.686 441.184 643.686 440.608C643.686 440 643.686 439.504 643.686 439.12C643.686 438.64 643.766 438.096 643.926 437.488C644.086 436.848 644.262 436.256 644.454 435.712C644.678 435.168 644.854 434.832 644.982 434.704C645.238 434.48 645.43 434.416 645.558 434.512C645.686 434.608 645.718 434.704 645.654 434.8C645.622 434.832 645.414 435.088 645.03 435.568C644.646 436.016 644.166 436.576 643.59 437.248C643.014 437.92 642.438 438.592 641.862 439.264C641.286 439.936 640.774 440.528 640.326 441.04C639.91 441.552 639.67 441.856 639.606 441.952C639.446 442.176 639.302 442.224 639.174 442.096C639.046 441.968 639.078 441.808 639.27 441.616C639.622 441.168 640.054 440.64 640.566 440.032C641.11 439.392 641.654 438.768 642.198 438.16C642.742 437.552 643.206 437.04 643.59 436.624C644.006 436.176 644.23 435.92 644.262 435.856C644.358 435.728 644.438 435.504 644.502 435.184C644.598 434.864 644.71 434.56 644.838 434.272C644.998 433.984 645.19 433.84 645.414 433.84C645.958 433.84 646.23 434.032 646.23 434.416C646.23 434.704 646.006 435.056 645.558 435.472C645.142 435.888 644.902 436.224 644.838 436.48C644.742 436.864 644.742 437.408 644.838 438.112C644.966 438.784 645.094 439.552 645.222 440.416C645.382 441.28 645.462 442.192 645.462 443.152C645.462 444.432 645.206 445.472 644.694 446.272C644.182 447.04 643.542 447.632 642.774 448.048C642.006 448.464 641.206 448.736 640.374 448.864C639.574 449.024 638.854 449.104 638.214 449.104ZM645.606 445.792C644.774 445.792 644.23 445.632 643.974 445.312C643.75 444.992 643.67 444.624 643.734 444.208C643.83 443.76 643.942 443.36 644.07 443.008L644.55 443.056C644.454 443.376 644.358 443.712 644.262 444.064C644.198 444.416 644.246 444.72 644.406 444.976C644.566 445.232 644.982 445.36 645.654 445.36C646.134 445.36 646.678 445.136 647.286 444.688C647.894 444.24 648.486 443.696 649.062 443.056C649.67 442.416 650.182 441.792 650.598 441.184L651.03 441.52C650.614 442.032 650.102 442.624 649.494 443.296C648.918 443.968 648.294 444.56 647.622 445.072C646.95 445.552 646.278 445.792 645.606 445.792ZM658.45 430.384C658.834 430.448 659.298 430.48 659.842 430.48C660.418 430.48 660.898 430.432 661.282 430.336C661.09 430.592 660.786 430.976 660.37 431.488C659.986 431.968 659.522 432.544 658.978 433.216C658.434 433.856 657.858 434.544 657.25 435.28C656.674 436.016 656.066 436.784 655.426 437.584C654.818 438.352 654.226 439.104 653.65 439.84C653.074 440.544 652.546 441.216 652.066 441.856C651.618 442.496 651.234 443.04 650.914 443.488L651.058 443.632C651.858 442.928 652.61 442.24 653.314 441.568C654.05 440.896 654.754 440.272 655.426 439.696C656.098 439.12 656.754 438.592 657.394 438.112C658.034 437.632 658.658 437.216 659.266 436.864C659.874 436.512 660.45 436.24 660.994 436.048C661.57 435.856 662.13 435.76 662.674 435.76C663.506 435.76 664.034 435.904 664.258 436.192C664.482 436.48 664.594 436.848 664.594 437.296C664.594 438.192 664.306 439.056 663.73 439.888C663.154 440.688 662.45 441.456 661.618 442.192C660.786 442.928 659.938 443.6 659.074 444.208C658.242 444.816 657.538 445.376 656.962 445.888C656.386 446.368 656.098 446.768 656.098 447.088C656.098 447.408 656.21 447.632 656.434 447.76C656.658 447.888 656.93 447.952 657.25 447.952C658.242 447.952 659.282 447.584 660.37 446.848C661.458 446.112 662.53 445.216 663.586 444.16C664.642 443.072 665.602 442 666.466 440.944L666.898 441.232C666.002 442.256 665.01 443.328 663.922 444.448C662.866 445.568 661.762 446.512 660.61 447.28C659.49 448.048 658.386 448.432 657.298 448.432C656.402 448.432 655.81 448.24 655.522 447.856C655.266 447.44 655.138 447.056 655.138 446.704C655.138 445.808 655.426 444.96 656.002 444.16C656.578 443.36 657.282 442.608 658.114 441.904C658.946 441.2 659.778 440.544 660.61 439.936C661.442 439.328 662.146 438.768 662.722 438.256C663.298 437.744 663.586 437.28 663.586 436.864C663.586 436.672 663.522 436.528 663.394 436.432C663.266 436.304 663.026 436.24 662.674 436.24C661.906 436.24 661.026 436.512 660.034 437.056C659.042 437.568 658.002 438.24 656.914 439.072C655.858 439.904 654.802 440.8 653.746 441.76C652.722 442.72 651.762 443.664 650.866 444.592C650.002 445.52 649.282 446.32 648.706 446.992C648.098 447.664 647.682 448.112 647.458 448.336C647.298 448.528 646.978 448.96 646.498 449.632C646.018 450.304 645.474 451.104 644.866 452.032C644.226 452.992 643.57 453.984 642.898 455.008C642.226 456.032 641.602 456.992 641.026 457.888C640.418 458.816 639.938 459.584 639.586 460.192C639.202 460.8 638.978 461.168 638.914 461.296C638.786 461.392 638.498 461.456 638.05 461.488C637.602 461.52 637.17 461.52 636.754 461.488C636.306 461.456 636.002 461.392 635.842 461.296C635.874 461.232 636.21 460.768 636.85 459.904C637.49 459.072 638.322 457.936 639.346 456.496C640.37 455.088 641.538 453.488 642.85 451.696C644.13 449.936 645.458 448.112 646.834 446.224C648.21 444.336 649.554 442.496 650.866 440.704C652.178 438.88 653.378 437.232 654.466 435.76C655.586 434.256 656.498 433.04 657.202 432.112C657.906 431.152 658.322 430.576 658.45 430.384ZM665.509 448.432C665.061 448.432 664.565 448.304 664.021 448.048C663.445 447.824 663.157 447.44 663.157 446.896C663.157 446.224 663.461 445.376 664.069 444.352C664.677 443.328 665.429 442.272 666.325 441.184C667.189 440.096 668.037 439.072 668.869 438.112C669.701 437.152 670.325 436.4 670.741 435.856C671.093 435.888 671.509 435.904 671.989 435.904C672.501 435.904 672.949 435.888 673.333 435.856C672.885 436.4 672.293 437.088 671.557 437.92C670.853 438.752 670.101 439.648 669.301 440.608C668.533 441.536 667.781 442.448 667.045 443.344C666.341 444.24 665.765 445.04 665.317 445.744C664.869 446.448 664.645 446.96 664.645 447.28C664.645 447.504 664.741 447.664 664.933 447.76C665.125 447.856 665.445 447.904 665.893 447.904C666.661 447.904 667.509 447.616 668.437 447.04C669.397 446.432 670.325 445.712 671.221 444.88C672.117 444.048 672.917 443.264 673.621 442.528C674.325 441.76 674.821 441.2 675.109 440.848L675.493 441.184C675.205 441.504 674.709 442.064 674.005 442.864C673.333 443.632 672.517 444.448 671.557 445.312C670.629 446.176 669.637 446.912 668.581 447.52C667.557 448.128 666.533 448.432 665.509 448.432ZM675.109 432.208C674.725 432.208 674.437 432.096 674.245 431.872C674.053 431.616 673.957 431.328 673.957 431.008C673.957 430.656 674.149 430.288 674.533 429.904C674.917 429.52 675.317 429.328 675.733 429.328C676.181 429.328 676.501 429.456 676.693 429.712C676.885 429.936 676.981 430.16 676.981 430.384C676.981 430.864 676.789 431.296 676.405 431.68C676.021 432.032 675.589 432.208 675.109 432.208ZM675.047 441.712C674.919 441.84 674.823 441.856 674.759 441.76C674.695 441.632 674.679 441.504 674.711 441.376C675.255 440.832 675.783 440.192 676.295 439.456C676.839 438.72 677.287 438.032 677.639 437.392C678.023 436.752 678.247 436.32 678.311 436.096C678.375 436.096 678.471 436.048 678.599 435.952C678.759 435.856 678.903 435.824 679.031 435.856C678.999 436.08 678.951 436.288 678.887 436.48C678.855 436.672 678.967 436.848 679.223 437.008C679.479 437.168 680.007 437.328 680.807 437.488C681.607 437.648 682.823 437.824 684.455 438.016C684.615 438.048 684.727 438.112 684.791 438.208C684.887 438.272 684.839 438.384 684.647 438.544C684.039 439.024 683.367 439.632 682.631 440.368C681.895 441.104 681.175 441.888 680.471 442.72C679.799 443.52 679.239 444.304 678.791 445.072C678.375 445.84 678.167 446.48 678.167 446.992C678.167 447.568 678.423 447.856 678.935 447.856C679.575 447.856 680.295 447.6 681.095 447.088C681.927 446.576 682.759 445.952 683.591 445.216C684.423 444.448 685.191 443.68 685.895 442.912C686.631 442.112 687.239 441.456 687.719 440.944L688.103 441.232C687.655 441.68 687.079 442.304 686.375 443.104C685.671 443.904 684.871 444.72 683.975 445.552C683.111 446.352 682.183 447.04 681.191 447.616C680.199 448.16 679.175 448.432 678.119 448.432C677.511 448.432 676.967 448.288 676.487 448C676.007 447.744 675.767 447.264 675.767 446.56C675.767 445.888 676.055 445.184 676.631 444.448C677.207 443.712 677.927 442.976 678.791 442.24C679.655 441.472 680.551 440.752 681.479 440.08C682.439 439.376 683.287 438.736 684.023 438.16L684.359 438.592C684.039 438.464 683.479 438.352 682.679 438.256C681.879 438.128 681.047 437.968 680.183 437.776C679.319 437.552 678.567 437.264 677.927 436.912C677.319 436.56 677.015 436.08 677.015 435.472C677.015 435.152 677.143 434.768 677.399 434.32C677.687 433.84 678.071 433.6 678.551 433.6C678.999 433.6 679.303 433.696 679.463 433.888C679.623 434.048 679.703 434.272 679.703 434.56C679.703 434.752 679.543 435.152 679.223 435.76C678.903 436.336 678.503 437.024 678.023 437.824C677.543 438.592 677.031 439.328 676.487 440.032C675.975 440.736 675.495 441.296 675.047 441.712ZM698.12 439.6C697.992 439.856 697.8 440.08 697.544 440.272C697.32 440.464 697.144 440.592 697.016 440.656C696.92 440.688 696.952 440.592 697.112 440.368C697.688 439.664 698.056 439.008 698.216 438.4C698.408 437.792 698.408 437.312 698.216 436.96C698.056 436.576 697.736 436.384 697.256 436.384C696.616 436.384 695.864 436.64 695 437.152C694.136 437.664 693.24 438.336 692.312 439.168C691.416 440 690.568 440.896 689.768 441.856C689 442.784 688.376 443.696 687.896 444.592C687.416 445.456 687.176 446.208 687.176 446.848C687.176 447.328 687.272 447.632 687.464 447.76C687.656 447.888 687.848 447.952 688.04 447.952C688.776 447.952 689.624 447.616 690.584 446.944C691.576 446.24 692.584 445.36 693.608 444.304C694.632 443.248 695.608 442.176 696.536 441.088C697.464 439.968 698.264 438.96 698.936 438.064C699.64 437.168 700.12 436.56 700.376 436.24C700.728 436.368 701.144 436.416 701.624 436.384C702.136 436.352 702.568 436.32 702.92 436.288C702.856 436.384 702.52 436.784 701.912 437.488C701.336 438.192 700.632 439.04 699.8 440.032C699 440.992 698.184 441.984 697.352 443.008C696.552 444.032 695.88 444.928 695.336 445.696C694.792 446.464 694.52 446.976 694.52 447.232C694.52 447.552 694.584 447.76 694.712 447.856C694.872 447.92 695.112 447.952 695.432 447.952C695.816 447.92 696.376 447.744 697.112 447.424C697.848 447.072 698.792 446.4 699.944 445.408C701.096 444.416 702.488 442.944 704.12 440.992C704.12 440.992 704.184 441.04 704.312 441.136C704.472 441.232 704.552 441.28 704.552 441.28C702.632 443.52 700.856 445.28 699.224 446.56C697.592 447.808 696.104 448.432 694.76 448.432C694.056 448.432 693.576 448.32 693.32 448.096C693.096 447.872 692.984 447.552 692.984 447.136C692.984 446.816 693.112 446.432 693.368 445.984C693.656 445.504 693.976 445.04 694.328 444.592C694.68 444.144 694.968 443.792 695.192 443.536C695.192 443.536 695.16 443.52 695.096 443.488C695.032 443.456 695 443.44 695 443.44C694.264 444.336 693.48 445.168 692.648 445.936C691.816 446.704 690.984 447.312 690.152 447.76C689.352 448.208 688.568 448.432 687.8 448.432C687 448.432 686.44 448.24 686.12 447.856C685.8 447.44 685.64 446.816 685.64 445.984C685.64 445.184 685.896 444.224 686.408 443.104C686.92 441.952 687.656 440.832 688.616 439.744C689.576 438.624 690.728 437.696 692.072 436.96C693.448 436.224 694.984 435.856 696.68 435.856C697.512 435.856 698.088 436.016 698.408 436.336C698.728 436.624 698.872 436.976 698.84 437.392C698.808 437.808 698.712 438.224 698.552 438.64C698.392 439.056 698.248 439.376 698.12 439.6ZM713.757 427.264C714.045 427.392 714.461 427.456 715.005 427.456C715.581 427.424 716.029 427.376 716.349 427.312C715.325 428.72 714.189 430.272 712.941 431.968C711.693 433.664 710.429 435.36 709.149 437.056C707.901 438.72 706.733 440.288 705.645 441.76C704.589 443.2 703.741 444.416 703.101 445.408C702.461 446.4 702.141 447.024 702.141 447.28C702.141 447.472 702.253 447.616 702.477 447.712C702.669 447.808 702.925 447.856 703.245 447.856C703.949 447.856 704.717 447.616 705.549 447.136C706.413 446.624 707.261 446 708.093 445.264C708.957 444.496 709.741 443.728 710.445 442.96C711.181 442.16 711.757 441.472 712.173 440.896L712.557 441.184C712.109 441.76 711.517 442.448 710.781 443.248C710.045 444.048 709.229 444.848 708.333 445.648C707.437 446.448 706.509 447.12 705.549 447.664C704.621 448.176 703.725 448.432 702.861 448.432C702.253 448.432 701.773 448.304 701.421 448.048C701.037 447.824 700.845 447.424 700.845 446.848C700.845 446.336 701.149 445.552 701.757 444.496C702.365 443.408 703.149 442.16 704.109 440.752C705.101 439.344 706.173 437.856 707.325 436.288C708.477 434.688 709.613 433.12 710.733 431.584C711.885 430.016 712.893 428.576 713.757 427.264ZM708.477 432.64C708.157 432.64 707.997 432.544 707.997 432.352C707.997 432.192 708.157 432.112 708.477 432.112H717.597C717.693 432.112 717.789 432.128 717.885 432.16C718.013 432.192 718.077 432.256 718.077 432.352C718.077 432.48 718.013 432.56 717.885 432.592C717.789 432.624 717.693 432.64 717.597 432.64H708.477ZM711.118 448.432C710.67 448.432 710.174 448.304 709.63 448.048C709.054 447.824 708.766 447.44 708.766 446.896C708.766 446.224 709.07 445.376 709.678 444.352C710.286 443.328 711.038 442.272 711.934 441.184C712.798 440.096 713.646 439.072 714.478 438.112C715.31 437.152 715.934 436.4 716.35 435.856C716.702 435.888 717.118 435.904 717.598 435.904C718.11 435.904 718.558 435.888 718.942 435.856C718.494 436.4 717.902 437.088 717.166 437.92C716.462 438.752 715.71 439.648 714.91 440.608C714.142 441.536 713.39 442.448 712.654 443.344C711.95 444.24 711.374 445.04 710.926 445.744C710.478 446.448 710.254 446.96 710.254 447.28C710.254 447.504 710.35 447.664 710.542 447.76C710.734 447.856 711.054 447.904 711.502 447.904C712.27 447.904 713.118 447.616 714.046 447.04C715.006 446.432 715.934 445.712 716.83 444.88C717.726 444.048 718.526 443.264 719.23 442.528C719.934 441.76 720.43 441.2 720.718 440.848L721.102 441.184C720.814 441.504 720.318 442.064 719.614 442.864C718.942 443.632 718.126 444.448 717.166 445.312C716.238 446.176 715.246 446.912 714.19 447.52C713.166 448.128 712.142 448.432 711.118 448.432ZM720.718 432.208C720.334 432.208 720.046 432.096 719.854 431.872C719.662 431.616 719.566 431.328 719.566 431.008C719.566 430.656 719.758 430.288 720.142 429.904C720.526 429.52 720.926 429.328 721.342 429.328C721.79 429.328 722.11 429.456 722.302 429.712C722.494 429.936 722.59 430.16 722.59 430.384C722.59 430.864 722.398 431.296 722.014 431.68C721.63 432.032 721.198 432.208 720.718 432.208ZM728.96 435.76C730.56 435.76 731.36 436.528 731.36 438.064C731.36 439.248 731.088 440.464 730.544 441.712C730 442.928 729.264 444.048 728.336 445.072C727.408 446.064 726.4 446.88 725.312 447.52C724.224 448.128 723.12 448.432 722 448.432C721.136 448.432 720.416 448.224 719.84 447.808C719.232 447.36 718.928 446.64 718.928 445.648C718.928 444.72 719.2 443.696 719.744 442.576C720.288 441.424 721.024 440.336 721.952 439.312C722.912 438.288 723.984 437.44 725.168 436.768C726.384 436.096 727.648 435.76 728.96 435.76ZM729.488 436.432C728.944 436.432 728.304 436.672 727.568 437.152C726.832 437.632 726.08 438.256 725.312 439.024C724.544 439.792 723.824 440.624 723.152 441.52C722.512 442.384 721.984 443.232 721.568 444.064C721.184 444.896 720.992 445.6 720.992 446.176C720.992 446.816 721.168 447.264 721.52 447.52C721.872 447.744 722.272 447.856 722.72 447.856C723.456 447.856 724.288 447.552 725.216 446.944C726.144 446.304 727.04 445.504 727.904 444.544C728.768 443.584 729.472 442.576 730.016 441.52C730.592 440.432 730.88 439.44 730.88 438.544C730.88 437.712 730.736 437.152 730.448 436.864C730.16 436.576 729.84 436.432 729.488 436.432ZM730.352 441.376C730.512 441.376 730.576 441.44 730.544 441.568C730.544 441.664 730.464 441.712 730.304 441.712C730.176 441.712 729.984 441.888 729.728 442.24C729.504 442.56 729.296 442.896 729.104 443.248C728.912 443.6 728.816 443.792 728.816 443.824C728.816 444.56 729.088 444.928 729.632 444.928C730.144 444.928 730.72 444.688 731.36 444.208C732.032 443.728 732.672 443.184 733.28 442.576C733.92 441.936 734.432 441.376 734.816 440.896L735.2 441.232C734.784 441.712 734.256 442.288 733.616 442.96C732.976 443.6 732.304 444.176 731.6 444.688C730.896 445.168 730.24 445.408 729.632 445.408C729.12 445.408 728.768 445.296 728.576 445.072C728.384 444.848 728.288 444.448 728.288 443.872C728.288 443.104 728.544 442.496 729.056 442.048C729.6 441.6 730.032 441.376 730.352 441.376ZM744.894 448.432C743.198 448.432 742.35 447.936 742.35 446.944C742.35 446.304 742.558 445.616 742.974 444.88C743.422 444.144 743.966 443.408 744.606 442.672C745.246 441.904 745.886 441.152 746.526 440.416C747.198 439.68 747.742 439.008 748.158 438.4C748.606 437.76 748.83 437.216 748.83 436.768C748.83 436.608 748.75 436.48 748.59 436.384C748.462 436.256 748.27 436.192 748.014 436.192C747.63 436.192 747.086 436.384 746.382 436.768C745.71 437.152 744.846 437.808 743.79 438.736C742.766 439.632 741.55 440.848 740.142 442.384C738.734 443.888 737.118 445.776 735.294 448.048C735.006 447.984 734.574 447.952 733.998 447.952C733.422 447.952 732.926 448.016 732.51 448.144C733.438 446.8 734.35 445.488 735.246 444.208C736.142 442.928 736.958 441.76 737.694 440.704C738.462 439.648 739.07 438.784 739.518 438.112C739.966 437.408 740.19 436.976 740.19 436.816C740.19 436.528 740.046 436.384 739.758 436.384C739.438 436.384 739.038 436.64 738.558 437.152C738.078 437.632 737.55 438.256 736.974 439.024C736.398 439.76 735.806 440.512 735.198 441.28L734.766 440.992C735.406 440.256 736.03 439.488 736.638 438.688C737.246 437.888 737.87 437.2 738.51 436.624C739.15 436.048 739.822 435.76 740.526 435.76C740.878 435.76 741.198 435.856 741.486 436.048C741.806 436.208 741.966 436.48 741.966 436.864C741.966 437.216 741.822 437.648 741.534 438.16C741.278 438.64 740.926 439.2 740.478 439.84C740.03 440.448 739.518 441.136 738.942 441.904C738.398 442.64 737.822 443.44 737.214 444.304L737.262 444.592C738.958 442.736 740.382 441.232 741.534 440.08C742.718 438.928 743.694 438.048 744.462 437.44C745.262 436.8 745.95 436.368 746.526 436.144C747.134 435.888 747.71 435.76 748.254 435.76C748.99 435.76 749.518 435.92 749.838 436.24C750.158 436.528 750.318 436.928 750.318 437.44C750.318 438.208 750.094 439.024 749.646 439.888C749.198 440.72 748.638 441.552 747.966 442.384C747.326 443.184 746.67 443.936 745.998 444.64C745.358 445.312 744.814 445.888 744.366 446.368C743.918 446.848 743.694 447.168 743.694 447.328C743.694 447.52 743.742 447.664 743.838 447.76C743.966 447.856 744.27 447.904 744.75 447.904C745.934 447.904 747.054 447.536 748.11 446.8C749.198 446.064 750.238 445.168 751.23 444.112C752.222 443.024 753.15 441.952 754.014 440.896L754.398 441.232C753.534 442.256 752.59 443.328 751.566 444.448C750.542 445.568 749.47 446.512 748.35 447.28C747.23 448.048 746.078 448.432 744.894 448.432Z" fill="#EA2121"/>
</svg>
