<svg xmlns="http://www.w3.org/2000/svg" version="1.1" xmlns:xlink="http://www.w3.org/1999/xlink" xmlns:svgjs="http://svgjs.dev/svgjs" viewBox="0 0 5.996622498086773 4.99939248450331"><g transform="matrix(1,0,0,1,1.7436063555094279,1.7685644991097131)"><rect width="5.996622498086773" height="5.996622498086773" x="-1.7436063555094279" y="-2.267179505901445" fill="#f8f8f8"></rect><g><path d=" M -0.87084913039346 0.8364961505451602 L -0.8844148013076789 0.829608025063789 L -0.8770100084193615 0.7972340672847171 Q -0.8648332378919064 0.7439968922702435 -0.8711892756067238 0.7039331122492842 Q -0.8775453133215413 0.6638693322283249 -0.8990628212834928 0.6354788871612367 Q -0.9205803292454444 0.6070884420941485 -0.953168548175412 0.5890358228943618 Q -0.9857567671053795 0.5709832036945752 -1.0260443590082244 0.5617683503224469 Q -1.0684902147630075 0.5520598440910975 -1.0938479744720944 0.5685930698058881 Q -1.1192057341811812 0.5851262955206786 -1.1303951989901941 0.634046942831276 Q -1.135167176629332 0.6549101600666778 -1.1326511586782768 0.6687341646843699 Q -1.1301351407272215 0.6825581693020617 -1.118553631980877 0.693156285415709 Q -1.1069721232345326 0.7037544015293562 -1.0839927581568976 0.715823925489677 L -0.748880527108859 0.892404807699519 Q -0.7278948749300882 0.9032612575166393 -0.7147501321295435 0.9070248714324824 Q -0.7016053893289989 0.9107884853483257 -0.6931043195956053 0.9017555598317514 Q -0.6846032498622117 0.8927226343151771 -0.6773017904552835 0.8641103339090758 L -0.6635715685879909 0.8702790381064677 Q -0.6687950830766451 0.8864966257318458 -0.6745849751700675 0.9101552526266283 Q -0.68037486726349 0.9338138795214108 -0.6861341506210702 0.9589936244606889 Q -0.6925516377909452 0.9870510545358845 -0.6979512105065357 1.0123130749516993 Q -0.7033507832221262 1.0375750953675142 -0.7053675106687155 1.0530120442372286 L -0.7190977325360082 1.0468433400398367 Q -0.7149418426994605 1.0220539144783907 -0.7161319022949361 1.0073976043643402 Q -0.7173219618904116 0.9927412942502898 -0.7284614845182295 0.9818657429711897 Q -0.7396010071460473 0.9709901916920897 -0.7640192147916413 0.9585915658256214 L -1.0991314458396797 0.7820106836157794 Q -1.1206719683493562 0.770270261561606 -1.1340635375795114 0.7675857795717319 Q -1.1474551068096668 0.7649012975818578 -1.1560384520195972 0.7742939337404218 Q -1.1646217972295276 0.7836865698989858 -1.1707101824932553 0.8103051574062226 L -1.1842758534074742 0.8034170319248514 Q -1.1802654130620205 0.7891931571983376 -1.1737867084204607 0.7641779632121333 Q -1.1673080037789012 0.7391627692259288 -1.1618778223274686 0.7154218668546095 Q -1.1559539880168146 0.689522700631352 -1.1506672995136034 0.6630992728130312 Q -1.145380611010392 0.6366758449947103 -1.1392922257466642 0.6100572574874735 Q -1.1226725794862187 0.5373957078055568 -1.0847535995004625 0.5089729294431268 Q -1.0468346195147062 0.4805501510806969 -0.9979139722041088 0.4917396158897097 Q -0.9417991120537177 0.5045745902294598 -0.9053708733599879 0.5488669848325138 Q -0.868942634666258 0.5931593794355678 -0.8573900100962564 0.6601517474079316 Q -0.8458373855262546 0.7271441153802953 -0.8642670922705112 0.8077192991859852 L -0.87084913039346 0.8364961505451602 M -0.5950024699262525 0.40833984405714185 Q -0.5736279715919621 0.42546017141842263 -0.5612473403260616 0.4303314412177465 Q -0.548866709060161 0.4352027110170704 -0.5399162587205271 0.4263187092882464 Q -0.5309658083808932 0.41743470755942236 -0.5191562121771991 0.39524641160174023 L -0.506973603226052 0.4040869966018084 Q -0.5153964352322352 0.4188975047968574 -0.5263539132954572 0.4418829862252289 Q -0.5373113913586792 0.46486846765360035 -0.5480874592598501 0.488343246898342 Q -0.5600950777782978 0.5145008580567684 -0.5699200163816198 0.5367881651718273 Q -0.5797449549849418 0.5590754722868861 -0.5851770674231211 0.5744468231207907 L -0.5970517887199491 0.5649355301423012 Q -0.5882329120842589 0.5421863915457636 -0.5865612383498814 0.5279309680190567 Q -0.5848895646155039 0.5136755444923496 -0.5935755440295745 0.5007557789519714 Q -0.6022615234436449 0.48783601341159333 -0.6236360217779353 0.4707156860503125 L -0.915666008704715 0.22946995635640705 Q -0.9374033273631073 0.21137103336238583 -0.9497564922941165 0.20732441536864277 Q -0.9621096572251256 0.20327779737489965 -0.9712415177268106 0.2116725012873535 Q -0.9803733782284954 0.22006720519980733 -0.9915122664537683 0.2425633888118086 L -1.0033869877505963 0.23305209583331926 Q -0.9965585266857917 0.2199458239192147 -0.9854196384605187 0.19744964030721335 Q -0.9742807502352457 0.17495345669521206 -0.9622731317167981 0.14879584553678565 Q -0.9514970638156272 0.12532106629204398 -0.941545647720037 0.10187375338219384 Q -0.9315942316244468 0.0784264404723436 -0.9248756358992078 0.062021561335915854 L -0.91300091460238 0.07153285431440526 Q -0.9227983868708106 0.09464481323504481 -0.924288650443137 0.10938953457812206 Q -0.9257789140154635 0.12413425592119925 -0.917274344763444 0.13656472364520722 Q -0.9087697755114245 0.14899519136921524 -0.8870324568530321 0.1670941143632364 L -0.5950024699262525 0.40833984405714185 M -0.22313494607974638 -0.02389686592435919 L -0.7105362552301681 -0.19068831285871213 Q -0.7105362552301681 -0.19068831285871213 -0.7078020269396545 -0.18522643500806812 Q -0.705067798649141 -0.17976455715742412 -0.7010565547512513 -0.1723493050112297 Q -0.6970453108533613 -0.1649340528650352 -0.6943110825628479 -0.1594721750143912 Q -0.6915768542723344 -0.15401029716374715 -0.6915768542723344 -0.15401029716374715 Q -0.709312726584329 -0.17559533099120794 -0.7205812403600869 -0.1821696634505191 Q -0.731849754135845 -0.18874399590983026 -0.7436300656010677 -0.1816002786854196 Q -0.7554103770662906 -0.17445656146100902 -0.7738629375672306 -0.15235562982998607 L -0.7831402261629523 -0.16441405494737565 Q -0.7752288124043445 -0.17321081800773552 -0.7638800681862805 -0.18634589690635506 Q -0.7525313239682165 -0.19948097580497465 -0.740615245042102 -0.2145204707109416 Q -0.7190746408295099 -0.2417072499640356 -0.7052274024152791 -0.2627492139479286 L -0.29214727583960864 -0.11623947031212828 Q -0.29214727583960864 -0.11623947031212828 -0.2864718787020523 -0.11033038913727394 Q -0.280796481564496 -0.10442130796241966 -0.2718795871202957 -0.09547314136411644 Q -0.26296269267609534 -0.08652497476581322 -0.2525996929524751 -0.0764310313476913 Q -0.24223669322885488 -0.06633708792956933 -0.2333197987846546 -0.05738892133126616 Q -0.22440290434045426 -0.04844075473296289 -0.21872750720289794 -0.04253167355810855 Q -0.21305211006534164 -0.03662259238325427 -0.21305211006534164 -0.03662259238325427 L -0.22313494607974638 -0.02389686592435919 M -0.510240452546616 -0.5385550272240731 Q -0.5224947108168176 -0.5219003373666427 -0.5236228015025364 -0.5044335213601464 Q -0.5247508921882549 -0.48696670535365016 -0.5183213845365042 -0.4677489269347985 Q -0.5000696144209473 -0.40997546029440324 -0.4231549282491459 -0.3038391044539407 Q -0.3462402420773444 -0.19770274861347814 -0.21305211006534164 -0.03662259238325427 L -0.2356648393858293 -0.041357103200472534 Q -0.2675457999553702 -0.0807405536481336 -0.30458378124261976 -0.1260931509625693 Q -0.3416217625298692 -0.17144574827700493 -0.377803188053184 -0.21847360623482426 Q -0.41398461357649874 -0.26550146419264353 -0.44565863358951036 -0.3098995891667383 Q -0.47733265360252186 -0.3542977141408332 -0.4997026415390431 -0.3932072177835153 Q -0.5220726294755642 -0.4321167214261975 -0.5311985145333427 -0.46100345474639515 Q -0.5381085477204552 -0.4843682445240285 -0.5368936478620477 -0.507886487896654 Q -0.5356787480036402 -0.5314047312692796 -0.5187212510703232 -0.5528070894046939 Q -0.502680375592861 -0.5730525633165726 -0.48798563876136414 -0.5731792734307959 Q -0.4732909019298672 -0.5733059835450194 -0.4617220596945081 -0.5641397689864696 Q -0.44726100690030907 -0.5526820007882824 -0.4405422781926744 -0.5332350670054671 Q -0.43382354948503965 -0.5137881332226517 -0.4471145605949368 -0.4970133119813809 Q -0.45719739660934156 -0.48428758552248574 -0.46838362988574495 -0.4856180880913994 Q -0.47956986316214834 -0.48694859066031304 -0.4870896106151318 -0.49290663012337044 Q -0.49692312651518705 -0.5006979124981378 -0.5024026904999312 -0.5139843949347007 Q -0.5078822544846754 -0.5272708773712635 -0.5088655203628336 -0.5402903535593769 Q -0.5093238310907611 -0.539711911447609 -0.5095529864547248 -0.539422690391725 Q -0.5097821418186885 -0.5391334693358409 -0.510240452546616 -0.5385550272240731 M -0.425900020862411 0.2890584312354435 Q -0.41410407332013677 0.27298218348978115 -0.4125176719064907 0.2549369253715169 Q -0.41093127049284467 0.23689166725325267 -0.4179392202563633 0.21721557810647354 Q -0.43125654628779225 0.1793584633805383 -0.47442370676719137 0.11737996974648965 Q -0.5175908672465904 0.055401476112441006 -0.5840158435805483 -0.025946199478402654 Q -0.6504408199145062 -0.10729387506924626 -0.7322545779022351 -0.20130516137001608 L -0.7123160111803407 -0.20151415198359413 Q -0.6722167296622079 -0.15467759850525276 -0.6313588089565465 -0.10582760503944066 Q -0.590500888250885 -0.05697761157362863 -0.5521858913562591 -0.009671639963642564 Q -0.5138708944616331 0.03763433164634353 -0.4826662925802663 0.08024817199693146 Q -0.4514616906988994 0.12286201234751937 -0.4309582678852398 0.15699710423144875 Q -0.41045484507158014 0.19113219611537813 -0.4048218274918439 0.2125436115974611 Q -0.3991888099121077 0.23395502707954408 -0.39913780156685597 0.2570639180124451 Q -0.39908679322160423 0.2801728089453461 -0.41741922233870377 0.3033104934160644 Q -0.4334600978161659 0.323555967327943 -0.4481548346476628 0.32368267744216644 Q -0.46284957147915984 0.3238093875563898 -0.4749968558262869 0.3141848622699126 Q -0.48945790862048594 0.3027270940717254 -0.49588741627223665 0.28350931565287374 Q -0.5023169239239874 0.26429153723402216 -0.4890259128140902 0.24751671599275135 Q -0.478484766071758 0.2342125474220883 -0.46752768815931833 0.23583227104688595 Q -0.4565706102468787 0.2374519946716836 -0.4490508627938953 0.24341003413474097 Q -0.43921734689383995 0.2512013165095083 -0.4337377829090958 0.26448779894607116 Q -0.4282582189243516 0.2777742813826341 -0.42727495304619345 0.2907937575707474 Q -0.426816642318266 0.29021531545897944 -0.42658748695430226 0.28992609440309547 Q -0.4263583315903385 0.2896368733472115 -0.425900020862411 0.2890584312354435 M -0.010944828856060407 -0.893650471344913 Q -0.005785687748828594 -0.8737500440370467 0.00556031881047514 -0.8369524704056748 Q 0.01690632536977882 -0.8001548967743028 0.041217018958120466 -0.7458636244991593 L 0.02921135661450691 -0.737277491976822 Q 0.025001913200412784 -0.7469693754957022 0.01946273848443078 -0.7566175821925877 Q 0.013923563768448832 -0.766265788889473 0.008342577628929565 -0.774069469412822 Q -0.007541767537394495 -0.796279944748507 -0.029339724833078784 -0.8083636337438231 Q -0.05113768212876313 -0.8204473227391392 -0.0776886313445262 -0.818244054997359 Q -0.10423958056028926 -0.8160407872555787 -0.1348540195365039 -0.7941461493236185 Q -0.1708710065673446 -0.7683877517566065 -0.1815738258449489 -0.7326067100793306 Q -0.19227664512255319 -0.6968256684020551 -0.16437171442495682 -0.6578072657853109 Q -0.14805806263251586 -0.6349965073324451 -0.12300035961587513 -0.6234294786072351 Q -0.09794265659923443 -0.611862449882025 -0.06817004228913748 -0.6063893367695257 Q -0.038397427979040555 -0.6009162236570263 -0.006223681200220932 -0.5971603370489945 Q 0.02595006557859872 -0.5934044504409627 0.056366639827870935 -0.5870309126526924 Q 0.08678321407714315 -0.580657374864422 0.11269953034601765 -0.5678897799048507 Q 0.13861584661489212 -0.5551221849452792 0.15664672491180054 -0.5299102940236907 Q 0.1789706694698776 -0.49869557193029546 0.18104850294104607 -0.4666110441939224 Q 0.18312633641221454 -0.43452651645754936 0.17100456679027579 -0.4045355180374793 Q 0.15888279716833706 -0.3745445196174093 0.13710722465414082 -0.34853711890763084 Q 0.11533165213994459 -0.3225297181978525 0.08891919498399473 -0.3036402266487103 Q 0.06490787029676756 -0.28646796160403565 0.04548042643701272 -0.27937880607773535 Q 0.026052982577257897 -0.272289650551435 0.010525513580720146 -0.2711652455703189 Q -0.005001955415817619 -0.27004084058920275 -0.01606911245703757 -0.27029170913042644 Q -0.026535986381076838 -0.27097188429776703 -0.03352659587264389 -0.2686943207011988 Q -0.04051720536421094 -0.26641675710463064 -0.04411890406729501 -0.2638409173479294 Q -0.05192258459064383 -0.2582599312084102 -0.0512293516341019 -0.24650700280447763 Q -0.050536118677559964 -0.23475407440054508 -0.045547954061392025 -0.2138240573493812 L -0.0575536164050056 -0.20523792482704387 Q -0.06159581412495056 -0.2223079130400706 -0.06804287511053292 -0.24400918969947896 Q -0.07448993609611528 -0.26571046635888734 -0.08681999017826458 -0.2981750277040106 Q -0.09915004426041388 -0.33063958904913393 -0.11976795470476753 -0.3784987235263537 L -0.10776229236115395 -0.3870848560486911 Q -0.10114798568142247 -0.37276168408342936 -0.0945773558236856 -0.35976824342005553 Q -0.08800672596594872 -0.3467748027566817 -0.07839100370031384 -0.3345981639220043 Q -0.047397303772824834 -0.2950668318320687 -0.007243303784220542 -0.2883987486805801 Q 0.03291069620438375 -0.28173066552909143 0.08213391181319943 -0.3169338088706745 Q 0.12115231442994354 -0.3448387395682709 0.13288472345084534 -0.3804488047544828 Q 0.14461713247174718 -0.4160588699406947 0.11671220177415084 -0.4550772725574388 Q 0.0986813234772424 -0.48028916347902734 0.07460953338190461 -0.49301494701506143 Q 0.050537743286566794 -0.5057407305510955 0.022395001836948078 -0.5114721737986478 Q -0.00574773961267061 -0.5172036170462002 -0.03504737047465606 -0.520746715739631 Q -0.06434700133664148 -0.5242898144330618 -0.09291904941237704 -0.5306215407977948 Q -0.12149109748811263 -0.5369532671625279 -0.14685080746180104 -0.551479900050104 Q -0.17221051743548943 -0.5660065329376802 -0.19195862223686533 -0.5936195563279913 Q -0.21256534029047497 -0.622433145952664 -0.21682965291730769 -0.6525003056259793 Q -0.22109396554414046 -0.6825674652992945 -0.21270305969281228 -0.7107975603929024 Q -0.20431215384148418 -0.7390276554865104 -0.18626744509789853 -0.7632741528698267 Q -0.16822273635431292 -0.787520650253143 -0.14361112854990507 -0.8051222219239345 Q -0.11839923762831656 -0.8231531002208429 -0.09609767785172751 -0.8300294678325421 Q -0.07379611807513847 -0.8369058354442414 -0.04754344501950841 -0.8357201923975387 Q -0.036476287978288446 -0.835469323856315 -0.02974214322331714 -0.8362025028379368 Q -0.02300799846834578 -0.8369356818195587 -0.020006582882442392 -0.839082214950143 Q -0.01160261924191286 -0.8450925077157793 -0.02295049119967396 -0.8850643388225757 L -0.010944828856060407 -0.893650471344913 M 0.39761951742840607 -0.7350961852840763 L 0.39564524971710147 -0.7501818064845474 L 0.4265460705297612 -0.7623491140381476 Q 0.47736075364391267 -0.7823575753485125 0.5068387993460647 -0.81022423116836 Q 0.5363168450482166 -0.8380908869882074 0.547599846508422 -0.8718801515266522 Q 0.5588828479686274 -0.905669416065097 0.5553827829692413 -0.9427590186243059 Q 0.5518827179698551 -0.9798486211835148 0.5367411796809304 -1.0183029759726023 Q 0.520788487555099 -1.058817385482534 0.4928253213495196 -1.0704115592676362 Q 0.46486215514394036 -1.0820057330527382 0.4181675814714768 -1.0636195794161867 Q 0.398253719169985 -1.055778425659422 0.3882646178906618 -1.0458965581420232 Q 0.3782755166113386 -1.0360146906246244 0.37606744041597595 -1.020471981416913 Q 0.3738593642206132 -1.0049292722092016 0.376872276876357 -0.9791485238622498 L 0.4203406368611268 -0.6028620411921511 Q 0.42322908058691194 -0.5794117321783455 0.42754451100755514 -0.5664376767875055 Q 0.4318599414281984 -0.5534636213966653 0.4441151417835132 -0.5515473765659896 Q 0.45637034213882804 -0.549631131735314 0.48410812302905 -0.5597598313204551 L 0.4867690756473026 -0.5449445947322864 Q 0.4704345535628943 -0.5400991184632311 0.4476387593274594 -0.5315197687107316 Q 0.4248429650920245 -0.5229404189582321 0.40080899334884473 -0.5134769575276541 Q 0.37402828197787297 -0.5029319576478672 0.35012950254084435 -0.49312515376381527 Q 0.3262307231038157 -0.4833183498797633 0.3123511092825123 -0.4762669032075205 L 0.3096901566642597 -0.4910821397956893 Q 0.332496674275887 -0.501648586427861 0.34392137983408555 -0.5109060035032913 Q 0.355346085392284 -0.5201634205787216 0.35803269634727186 -0.5354979796391099 Q 0.3607193073022597 -0.5508325386994983 0.35716562542191144 -0.5779866568603462 L 0.3136972654371416 -0.9542731395304449 Q 0.3112251220060023 -0.9786805180635008 0.30587966422493706 -0.9912489965358875 Q 0.30053420644387185 -1.0038174750082742 0.28793566363508305 -1.0055985275327988 Q 0.2753371208262942 -1.0073795800573233 0.24992977926921844 -0.9973753494021409 L 0.24795551155791384 -1.012460970602612 Q 0.2619595943091759 -1.0171819779417084 0.28626395066465793 -1.0259587544653384 Q 0.31056830702013993 -1.0347355309889683 0.3332289089494237 -1.0436582231949418 Q 0.3579495655995515 -1.0533920692378222 0.382743180090851 -1.0639477924938014 Q 0.40753679458215053 -1.0745035157497806 0.4329441361392263 -1.084507746404963 Q 0.5022993117409735 -1.111816592247488 0.5471678335919677 -1.0965680146119556 Q 0.5920363554429618 -1.0813194369764232 0.6104225090795133 -1.0346248633039594 Q 0.631512508839087 -0.981063440562016 0.6155236294156444 -0.9259890497003586 Q 0.5995347499922017 -0.8709146588387012 0.5507651866383514 -0.8235546525963581 Q 0.5019956232845011 -0.7761946463540149 0.4250869137063258 -0.7459115697761655 L 0.39761951742840607 -0.7350961852840763 M 0.9067473461947329 -0.7491694525684787 Q 0.9046854273095779 -0.7218615182176157 0.9076552202172443 -0.7088927237445132 Q 0.9106250131249108 -0.6959239292714108 0.9230110265463434 -0.6935527018415562 Q 0.9353970399677758 -0.6911814744117015 0.9603781172974041 -0.693962268444192 L 0.9599600163238774 -0.6789157706597926 Q 0.9429804436947373 -0.67750532203196 0.9178225268884493 -0.6735711252946459 Q 0.8926646100821614 -0.6696369285573317 0.8672052769442448 -0.66527673863342 Q 0.8388363057334234 -0.6604182412896326 0.8148940800594436 -0.6559435003165455 Q 0.7909518543854638 -0.6514687593434585 0.7751979986944255 -0.6472732494976902 L 0.7763435091861783 -0.6624443241370584 Q 0.8000988695777047 -0.6680101793874847 0.8128084845350757 -0.6746793083137667 Q 0.8255180994924468 -0.6813484372400486 0.8312772208034945 -0.695812153972778 Q 0.8370363421145423 -0.7102758707055074 0.8390982609996973 -0.7375838050563703 L 0.8733261973409763 -1.1148230709524556 Q 0.8759909488893887 -1.1429829916765137 0.8723560348909803 -1.1554635045355341 Q 0.8687211208925721 -1.1679440173945546 0.8566365238027683 -1.170741238011007 Q 0.8445519267129644 -1.1735384586274589 0.8196954262383052 -1.1700302550767423 L 0.820840936730058 -1.1852013297161106 Q 0.8355137039495506 -1.1869654572972625 0.86037020442421 -1.1904736608479793 Q 0.8852267048988693 -1.193981864398696 0.9135956761096906 -1.1988403617424832 Q 0.9390550092476072 -1.203200551666395 0.9640260607714418 -1.2082258626810485 Q 0.9889971122952764 -1.213251173695702 1.0063303638777361 -1.2169684277331818 L 1.0051848533859833 -1.2017973530938137 Q 0.9805775066212618 -1.1968343305066447 0.9675664753322621 -1.1897392083937652 Q 0.9545554440432624 -1.1826440862808858 0.9490977390638433 -1.1686063627347538 Q 0.9436400340844242 -1.1545686391886218 0.9409752825360118 -1.126408718464564 L 0.9067473461947329 -0.7491694525684787 M 1.283439121928222 -0.9624264271444383 Q 1.3239044612296602 -0.9589217172820554 1.3466615178856025 -0.9559345310879539 Q 1.369418574541545 -0.9529473448938525 1.3829806413214938 -0.9507901871211787 Q 1.3965427081014425 -0.9486330293485048 1.4089622417068177 -0.9457941744693399 Q 1.4308530050795965 -0.9402641416523478 1.4467548626880962 -0.9331867728192997 Q 1.4626567202965959 -0.9261094039862516 1.4720534572197321 -0.9145548549168431 Q 1.4814501941428682 -0.9030003058474345 1.4850419671047992 -0.8861945813468384 Q 1.4886337400667302 -0.869388856846242 1.485167258186879 -0.8444390319294883 L 1.4755048885068178 -0.7695526379438928 Q 1.4729231595277972 -0.7475141976297761 1.4759987175686438 -0.7277786289088757 Q 1.4790742756094906 -0.7080430601879752 1.4960639419131607 -0.7079309937347747 Q 1.5093682284193666 -0.7080035234582468 1.5201125174322119 -0.7233522469103275 Q 1.530856806445057 -0.7387009703624083 1.5426526392913367 -0.7676671394474397 L 1.5468548883834838 -0.7778016067036673 L 1.5638076354518198 -0.7769524642909739 L 1.5603793815544997 -0.7675181537589046 Q 1.5455970168877171 -0.7231841472305268 1.5242013913239614 -0.7017186094376933 Q 1.5028057657602059 -0.6802530716448596 1.4681631956640415 -0.6819882757055808 Q 1.4320464736488916 -0.683797318236971 1.4169199199824163 -0.7063532822193692 Q 1.401793366315941 -0.7289092462017673 1.4053706059017959 -0.7560702989969995 L 1.415402167935202 -0.8383274525775236 Q 1.4203071912459015 -0.8772448014893071 1.4129753140071029 -0.9005187274399323 Q 1.4056434367683044 -0.9237926533905576 1.3755531941263666 -0.9352753271100926 Q 1.3454629514844285 -0.9467580008296277 1.28133734300855 -0.9499699743037286 L 1.283439121928222 -0.9624264271444383 M 1.2754407353326072 -0.9502653281864046 L 1.2798644998367612 -0.9648222511995892 L 1.3130329180139397 -0.963160885609537 Q 1.3661023870974256 -0.9605027006654535 1.4028282764955948 -0.9708554114656955 Q 1.4395541658937638 -0.9812081222659375 1.462405483758838 -1.0022312836083556 Q 1.485256801623912 -1.0232544449507737 1.4966471772551109 -1.0515019976939795 Q 1.5080375528863097 -1.0797495504371852 1.5096989184763618 -1.112917968614364 Q 1.511877153361097 -1.1564054502244425 1.491185610763091 -1.1785012325123565 Q 1.4704940681650847 -1.2005970148002705 1.4203729029195702 -1.2031075228030161 Q 1.3879415607018846 -1.2047319691577338 1.3740281068126596 -1.1924976861026297 Q 1.3601146529234345 -1.1802634030475256 1.3479127084884752 -1.1431893984080728 L 1.2323067411095092 -0.7824730615637686 Q 1.2252656371381971 -0.759919060702166 1.223845555325016 -0.7463200746868827 Q 1.2224254735118352 -0.7327210886715992 1.2335363373836312 -0.7258836948682253 Q 1.2446472012554273 -0.7190463010648513 1.2726191684808215 -0.7169062941626477 L 1.26893247993616 -0.7023124519141286 Q 1.2520535713384935 -0.7046357462458076 1.2277485242928963 -0.7062226189915923 Q 1.2034434772472993 -0.7078094917373771 1.1776458186650494 -0.7091016649740843 Q 1.1488998562448278 -0.7105415151521296 1.1230837380449106 -0.7114651504090904 Q 1.0972676198449933 -0.7123887856660513 1.0817151862249743 -0.71168993768909 L 1.0854018747696357 -0.7262837799376092 Q 1.1105362958630618 -0.726502677855222 1.124762254505433 -0.7302236681408238 Q 1.1389882131478042 -0.7339446584264256 1.1477605949382466 -0.7468059141086176 Q 1.156532976728689 -0.7596671697908096 1.1644957528361664 -0.785869631214542 L 1.2801017202151324 -1.1465859680588462 Q 1.2879168193812718 -1.1698401256446072 1.2882312872552135 -1.1834944905128921 Q 1.2885457551291553 -1.1971488553811773 1.2778034292371057 -1.2039677895668839 Q 1.267061103345056 -1.2107867237525909 1.2397892928438203 -1.212152735459967 L 1.2442130573479744 -1.2267096584731516 Q 1.25449520154554 -1.2254557132189758 1.2692182611177298 -1.2243487905325396 Q 1.2839413206899197 -1.2232418678461032 1.3012441461203346 -1.2220057278359961 Q 1.3185469715507496 -1.220769587825889 1.3347626426595924 -1.2199573646485304 Q 1.3612973772013353 -1.2186282721764887 1.388237568958159 -1.2180177960462726 Q 1.415177760714983 -1.2174073199160562 1.4424495712162186 -1.21604130820868 Q 1.5168942431249972 -1.2123124654398962 1.5515895745797692 -1.182125998468031 Q 1.5862849060345412 -1.1519395314961658 1.5839220749731335 -1.104766670088623 Q 1.5814484862057225 -1.0553825808026014 1.5452731134695783 -1.0191399133317733 Q 1.5090977407334338 -0.9828972458609451 1.4471813970152385 -0.9638308039912551 Q 1.3852650532970427 -0.9447643621215651 1.3049237737123214 -0.9487885587730249 L 1.2754407353326072 -0.9502653281864046 M 1.7464462663226508 -0.7654923299392085 Q 1.708816726978232 -0.7371664975467294 1.6966246426496847 -0.717032144099807 Q 1.6844325583211373 -0.6968977906528847 1.6947866720513503 -0.6831620641754894 Q 1.7051407857815633 -0.6694263376980942 1.7337599867633606 -0.6595758279060336 L 1.7257806628869738 -0.6466219060876913 Q 1.706529679771459 -0.6542756059175884 1.685537107446176 -0.6613202966963062 Q 1.6645445351208927 -0.6683649874750242 1.6462542964162614 -0.6741655488381691 Q 1.6286675284310392 -0.679743011687347 1.6165969769441044 -0.6831839510650835 Q 1.6045264254571696 -0.68662489044282 1.5928246969186932 -0.688787525227476 L 1.60080402079508 -0.7017414470458183 Q 1.6113219064087059 -0.7007284800085054 1.6239934030825267 -0.7040649741333832 Q 1.6366648997563478 -0.7074014682582609 1.653343145957116 -0.716048167956213 Q 1.670021392157884 -0.7246948676541649 1.6905606634511081 -0.7406335482376806 L 2.1289542429804125 -1.0707813446796433 Q 2.131768125858048 -1.0698889506237748 2.1342302733759793 -1.0691081058248897 Q 2.1366924208939104 -1.0683272610260048 2.139506303771546 -1.0674348669701366 L 2.0273161672625863 -0.6160278439032583 Q 2.021395032917997 -0.5900336024626367 2.029286999130279 -0.5770787207841264 Q 2.0371789653425605 -0.564123839105616 2.0475079276197268 -0.5600738906767004 L 2.040232074462749 -0.546896870344391 Q 2.0266088571025054 -0.5527657820625511 2.005616284777222 -0.5598104728412691 Q 1.984623712451939 -0.5668551636199869 1.964223061589081 -0.5733250205250332 Q 1.9388981156903609 -0.5813565670278493 1.9162755034122927 -0.5881439841150926 Q 1.8936528911342245 -0.5949314012023358 1.8791372797181125 -0.5979864300428603 L 1.8864131328750904 -0.6111634503751697 Q 1.9206259244346515 -0.601861663143566 1.9381533657893195 -0.6083034890150616 Q 1.9556808071439877 -0.6147453148865571 1.9656518899174928 -0.6510685186043449 L 2.0568688463932077 -1.00460671386945 L 2.0622393384570037 -1.004451965710498 L 1.7464462663226508 -0.7654923299392085 M 1.8308343366352187 -0.8362817594673598 L 2.0362477867026154 -0.7711369933889624 L 2.026158050668002 -0.7588523671125214 L 1.8137098934065163 -0.8262281183305901 L 1.8308343366352187 -0.8362817594673598 M 2.8916523248905146 -0.7359300645646363 Q 2.9060045244431185 -0.7268674466204527 2.907352243741382 -0.7137970296151277 Q 2.908699963039646 -0.7007266126098028 2.900819425696878 -0.6882464390857995 Q 2.891756807752694 -0.6738942395331957 2.876043193581931 -0.6676694417298613 Q 2.860329579411168 -0.6614446439265269 2.843121083481504 -0.6618370771548933 Q 2.821216436702285 -0.6617036100141511 2.793218865621702 -0.6719635975184173 Q 2.765221294541119 -0.6822235850226834 2.73152482602631 -0.7035010358481579 Q 2.705316461625903 -0.7200501642679715 2.681193222465719 -0.7392103182971167 Q 2.657069983305535 -0.7583704723262619 2.634473797460359 -0.7778755990689996 Q 2.6118776116151827 -0.7973807258117374 2.5893143941454992 -0.8155558126730365 Q 2.5667511766758158 -0.8337308995343354 2.543038846980209 -0.8487039204855954 Q 2.523694578018004 -0.8609187533668863 2.502232215440084 -0.8718526005202845 Q 2.480769852862163 -0.8827864476736825 2.4664514185044375 -0.8822267821096954 Q 2.467503219242655 -0.8728344804105865 2.4641218193158716 -0.8605682029175916 Q 2.4607404193890887 -0.8483019254245968 2.4548300163820125 -0.8389417952815943 Q 2.446949479039244 -0.8264616217575911 2.431974864449212 -0.8193337793154489 Q 2.4170002498591803 -0.8122059368733068 2.4007760242779757 -0.8224506354189056 Q 2.387047833401572 -0.8311192264959508 2.385700114103308 -0.8441896435012758 Q 2.3843523948050445 -0.8572600605066008 2.3930209858820897 -0.8709882513830044 Q 2.400901523224858 -0.8834684249070076 2.4162371963065357 -0.8925503159067886 Q 2.4315728693882135 -0.9016322069065695 2.456827541357495 -0.8987775041682811 Q 2.4755140364486214 -0.8965789816622993 2.4940204007036177 -0.889257313064132 Q 2.512526764958614 -0.8819356444659647 2.5275849957164565 -0.873300021764412 Q 2.542643226474299 -0.8646643990628594 2.549507321912501 -0.8603301035243368 Q 2.586947842484511 -0.8366884914960316 2.6172621142531503 -0.8114370068042943 Q 2.6475763860217905 -0.7861855221125569 2.67757865345233 -0.7611310508543888 Q 2.7075809208828696 -0.7360765795962206 2.7437734241024794 -0.7132230213021924 Q 2.772477823207687 -0.6950977854138252 2.7943012442772535 -0.6861179868180658 Q 2.81612466534682 -0.6771381882223065 2.837241258391762 -0.6760236380106484 L 2.833859061645593 -0.6720496041443856 Q 2.8315592435549757 -0.6822299595777714 2.8317385775717194 -0.695645349296689 Q 2.831917911588463 -0.7090607390156065 2.839404422064093 -0.7209169038634098 Q 2.8472849594068617 -0.733397077387413 2.861668533696186 -0.7395889068152549 Q 2.8760521079855104 -0.7457807362430968 2.8916523248905146 -0.7359300645646363 M 2.623601902961016 -0.7952143748618621 Q 2.623601902961016 -0.7952143748618621 2.628823954179679 -0.7910441243814161 Q 2.634046005398342 -0.7868738739009702 2.6416820687927673 -0.7803064938422011 Q 2.649318132187193 -0.7737391137834322 2.6569541955816183 -0.7671717337246632 Q 2.6645902589760437 -0.7606043536658942 2.6698123101947067 -0.7564341031854482 Q 2.6750343614133696 -0.7522638527050023 2.6750343614133696 -0.7522638527050023 L 2.3595959337844152 -0.46005099807507194 Q 2.3383828260711534 -0.44027893705084986 2.3315532926472162 -0.42669870545446964 Q 2.324723759223279 -0.4131184738580894 2.3337397134720748 -0.4004428805392889 Q 2.342755667720871 -0.3877672872204884 2.3685700052541394 -0.37059415012447466 L 2.35819343320657 -0.35969008406902503 Q 2.3427572613596426 -0.37118279996702425 2.3179939277452055 -0.38725587899066105 Q 2.293230594130768 -0.4033289580142979 2.266398221054161 -0.4202721133012499 Q 2.2395658479775538 -0.4372152685882019 2.214720491834078 -0.45246732550206936 Q 2.189875135690602 -0.46771938241593686 2.174110873727521 -0.47592800987485856 L 2.1844874457750905 -0.4868320759303082 Q 2.2114838639097743 -0.4715309648628949 2.2294972961711546 -0.4675754072328435 Q 2.2475107284325353 -0.46361984960279207 2.264012396337575 -0.47109266475852685 Q 2.280514064242615 -0.47856547991426157 2.3015631268977996 -0.4966954967189449 L 2.623601902961016 -0.7952143748618621 M 2.6824473434320733 -0.19106307952141433 Q 2.6590132310573233 -0.17689208219562283 2.650176237348566 -0.16694638753957253 Q 2.641339243639809 -0.15700069288352225 2.646597393403256 -0.14553823638130764 Q 2.6518555431667035 -0.13407577987909308 2.6686194944915576 -0.11534727283827662 L 2.6561241908956372 -0.10695446091105121 Q 2.645120364528019 -0.11996257596555857 2.627314535888793 -0.13816562923885695 Q 2.6095087072495677 -0.1563686825121553 2.5911810369310904 -0.17456992974132063 Q 2.570758775719072 -0.19485131951096202 2.5532183830298054 -0.2117506716081968 Q 2.5356779903405386 -0.22865002370543158 2.523117669155829 -0.23904351223127962 L 2.5361366204751348 -0.246916288523386 Q 2.55445706661708 -0.23080240801122884 2.5672647633104178 -0.2243236351018376 Q 2.580072460003756 -0.21784486219244636 2.5951932263931337 -0.22155012922706854 Q 2.610313992782512 -0.22525539626169072 2.6337481051572618 -0.23942639358748222 L 2.9608072796631197 -0.43051096055076843 Q 2.9852850753963738 -0.444685569964826 2.9933384035641866 -0.45488947639430277 Q 3.001391731731999 -0.46509338282377954 2.996655423647804 -0.4765576453701272 Q 2.9919191155636087 -0.4880219079164748 2.9746351286036354 -0.5062267672339062 L 2.987654079922941 -0.5140995435260125 Q 2.9976069987555234 -0.5031751831002473 3.014890985715497 -0.4849703237828159 Q 3.0321749726754703 -0.4667654644653845 3.052597233887488 -0.44648407469574314 Q 3.070924904205966 -0.4282828274665778 3.0895107862978697 -0.41086524577835704 Q 3.1080966683897735 -0.3934476640901363 3.1211842493861344 -0.38149045657066516 L 3.1081652980668286 -0.3736176802785588 Q 3.089841239836617 -0.39077524414922005 3.0765117014640273 -0.3972522110144782 Q 3.0631821630914375 -0.4037291778797364 3.0485832383813114 -0.40002571688924726 Q 3.0339843136711857 -0.39632225589875814 3.0095065179379317 -0.38214764648470056 L 2.6824473434320733 -0.19106307952141433 M 3.3889585849692945 0.0031712410914759848 Q 3.370797482711649 -0.02551047902408443 3.336081909806363 -0.04239974496011037 Q 3.301366336901078 -0.059289010896136224 3.256123177957704 -0.06383448708951653 Q 3.2108800190143296 -0.0683799632828968 3.1604609000427155 -0.061786506592644924 Q 3.1100417810711014 -0.05519304990239303 3.0592578611698853 -0.03744979167660871 Q 3.008473941268669 -0.019706533450824376 2.9635808141312703 0.008719539648098934 Q 2.9024762799720327 0.0474105835883001 2.883071214113462 0.0933277009741349 Q 2.8636661482548913 0.13924481835996969 2.887749349074812 0.1772792732958216 Q 2.9059104513324576 0.20596099341138208 2.9406260242377433 0.22285025934740796 Q 2.9753415971430286 0.23973952528343384 3.0205847560864028 0.24428500147681415 Q 3.065827915029777 0.2488304776701944 3.116247034001391 0.24223702097994254 Q 3.166666152973005 0.23564356428969063 3.2174500728742212 0.21790030606390634 Q 3.2682339927754374 0.20015704783812197 3.3131271199128367 0.17173097473919866 Q 3.374231654072074 0.13303993079899748 3.3936367199306448 0.08712281341316275 Q 3.4130417857892157 0.04120569602732793 3.3889585849692945 0.0031712410914759848 M 2.929837021135441 -0.06250560516926629 Q 2.9709890543447237 -0.08856283884327931 3.0221364750182995 -0.10435250136153001 Q 3.0732838956918758 -0.12014216387978073 3.1274019341412473 -0.12296322084345751 Q 3.1815199725906194 -0.1257842778071343 3.233651809376757 -0.11380835670253767 Q 3.285783646162894 -0.10183243559794097 3.3297567363358533 -0.07377163082258217 Q 3.3737298265088125 -0.045710826047223346 3.40373512589101 0.0016763637089200478 Q 3.4475586552518496 0.07088660137907682 3.433264337510117 0.13453174047310656 Q 3.418970019768385 0.19817687956713634 3.3466422038247976 0.24397444178206834 Q 3.3054901706155153 0.27003167545608137 3.254457104483873 0.28531217686157984 Q 3.2034240383522308 0.30059267826707836 3.149305999902859 0.3034137352307551 Q 3.095187961453487 0.3062347921944319 3.0430561246673498 0.29425887108983523 Q 2.9909242878812123 0.2822829499852386 2.9467537944228437 0.25391038738253674 Q 2.9025833009644755 0.22553782477983486 2.872972808153097 0.17877415067837757 Q 2.829149278792257 0.10956391300822078 2.8436409998193986 0.04623053174153406 Q 2.85813272084654 -0.01710284952515266 2.929837021135441 -0.06250560516926629 M 3.1594837743235593 0.8348173072449303 L 3.5848365870882377 0.5442069020541038 Q 3.5848365870882377 0.5442069020541038 3.578824600792803 0.5431279512751045 Q 3.572812614497368 0.5420490004961053 3.5644714530775783 0.5408238196241473 Q 3.5561302916577886 0.5395986387521893 3.550118305362354 0.53851968797319 Q 3.544106319066919 0.5374407371941907 3.544106319066919 0.5374407371941907 Q 3.5720136021675875 0.5361529476387389 3.5840250530217586 0.5310611602926457 Q 3.5960365038759297 0.5259693729465524 3.5973650964492574 0.5122564857314509 Q 3.598693689022585 0.4985435985163492 3.5920341736718213 0.4705329037143108 L 3.607246927026607 0.47031881175636536 Q 3.60955832723277 0.4819218689865504 3.613287591073042 0.4988752428162528 Q 3.6170168549133144 0.5158286166459553 3.6219321155115587 0.5343763808576156 Q 3.6308173942853075 0.5679050315479247 3.639385169399741 0.5915926546787601 L 3.274765421242424 0.8348060079422978 Q 3.274765421242424 0.8348060079422978 3.2666347175029764 0.8358154779524206 Q 3.2585040137635293 0.8368249479625435 3.245998532502194 0.8386120211066523 Q 3.233493051240859 0.8403990942507611 3.219204131113018 0.8426587886062396 Q 3.204915210985177 0.844918482961718 3.192409729723842 0.8467055561058268 Q 3.1799042484625066 0.8484926292499355 3.1717735447230595 0.8495020992600584 Q 3.163642840983612 0.8505115692701813 3.163642840983612 0.8505115692701813 L 3.1594837743235593 0.8348173072449303 M 3.743614715503167 0.9128790673623248 Q 3.7376079823892248 0.8930936005420077 3.7242909670614104 0.8817349319246585 Q 3.710973951733596 0.8703762633073091 3.691730586893525 0.8640237452528747 Q 3.6345248194353657 0.8440637670584219 3.503463273708072 0.8421490316791929 Q 3.3724017279807783 0.8402342962999638 3.163642840983612 0.8505115692701813 L 3.180970677504807 0.835230954050409 Q 3.2316025663953805 0.833265338784738 3.2901029954943737 0.830741465524519 Q 3.3486034245933674 0.8282175922643 3.4079331626770313 0.827382633628313 Q 3.4672629007606957 0.826547674992326 3.5217880585026915 0.8277494312947762 Q 3.576313216244687 0.8289511875972264 3.6208725255300447 0.834320898018825 Q 3.6654318348154025 0.8396906084404236 3.694034718544482 0.8496705975376502 Q 3.716887779509154 0.8581204238403024 3.735000487719541 0.8731707910878275 Q 3.753113195929928 0.8882211583353526 3.7601079898581986 0.9146160535596385 Q 3.7667246868173736 0.9395841976907198 3.7580304719018853 0.9514316435337404 Q 3.749336256986398 0.9632790893767612 3.7350687460543512 0.9670600590677182 Q 3.717234357389293 0.9717862711814145 3.697634304775921 0.9655282773692542 Q 3.6780342521625484 0.9592702835570939 3.672551846110661 0.9385823927056265 Q 3.668392779450608 0.9228881306803753 3.676154273680056 0.9147234960084347 Q 3.683915767909503 0.9065588613364941 3.6931896500153334 0.904101231037372 Q 3.7053170343075728 0.9008874068000586 3.7192403792030166 0.9044506502554672 Q 3.7331637240984605 0.9080138937108759 3.744181860956811 0.9150191940021318 Q 3.743992812472263 0.9143058184555295 3.743898288229989 0.9139491306822284 Q 3.743803763987715 0.9135924429089272 3.743614715503167 0.9128790673623248 M 3.0301503603590794 0.48506373456225926 Q 3.0359680449884734 0.504135825835974 3.049474108800836 0.5162078699999257 Q 3.062980172613198 0.5282799141638773 3.0829369129998714 0.5344433837337638 Q 3.121234594195466 0.54643504429603 3.196722328056655 0.5489528714351091 Q 3.272210061917844 0.5514706985741883 3.377135241674276 0.5469509133934078 Q 3.4820604214307083 0.5424311282126275 3.606341265187677 0.5331637217223564 L 3.594574202946342 0.5492611241901006 Q 3.533052632372186 0.5533490911773873 3.4694640502047025 0.55683961605614 Q 3.4058754680372187 0.5603301409348926 3.3450458638138705 0.5627077841021528 Q 3.284216259590522 0.565085427269413 3.231401425668553 0.5645756373177706 Q 3.178586591746584 0.5640658473661281 3.1389692054367573 0.5600586604503505 Q 3.0993518191269307 0.5560514735345727 3.0788279332866137 0.5477478773248794 Q 3.058304047446297 0.539444281115186 3.0397615364161292 0.5256530256721123 Q 3.0212190253859617 0.5118617702290384 3.0136570860040477 0.48332674836494555 Q 3.0070403890448727 0.45835860423386426 3.0157346039603605 0.4465111583908436 Q 3.0244288188758484 0.4346637125478229 3.0394097053544975 0.430693694372318 Q 3.0572440940195555 0.42596748225862174 3.0764874588596265 0.43232000031305606 Q 3.095730823699698 0.4386725183674903 3.1012132297515853 0.45936040921895765 Q 3.105561344896186 0.47576804679081103 3.0977053264244647 0.4835759936894505 Q 3.0898493079527434 0.49138394058809 3.080575425846913 0.49384157088721203 Q 3.0684480415546735 0.49705539512452546 3.0545246966592297 0.49349215166911686 Q 3.0406013517637853 0.48992890821370827 3.029583214905436 0.4829236079224523 Q 3.0297722633899835 0.4836369834690546 3.0298667876322574 0.48399367124235576 Q 3.029961311874531 0.48435035901565693 3.0301503603590794 0.48506373456225926" fill="#ff0000" fill-rule="nonzero"></path></g><g clip-path="url(#SvgjsClipPath1002)"><path d=" M 0 0.3094845993414892 L 2.5060276236354273 0.3094845993414892 L 2.5060276236354273 2.1965430242939386 L 0 2.1965430242939386 Z" fill="#c84449" transform="matrix(1,0,0,1,0,0)" fill-rule="nonzero" mask="url(#maskedText)"></path></g><g><path d=" M -0.2737735244771724 1.2530138118177137 A 1.526787336294886 1.526787336294886 0 0 1 2.7798011481125995 1.2530138118177137 A 1.526787336294886 1.526787336294886 0 0 1 -0.2737735244771726 1.2530138118177137 Z M -0.2640235244771725 1.2530138118177137 A 1.5170373362948861 1.5170373362948861 0 0 0 2.7700511481126 1.2530138118177137 A 1.5170373362948861 1.5170373362948861 0 0 0 -0.26402352447717226 1.2530138118177137 Z" fill="#382d5e" fill-rule="nonzero"></path></g></g><defs><clipPath id="SvgjsClipPath1002"><path d=" M 0 0 h 2.5060276236354273 v 2.5060276236354273 h -2.5060276236354273 Z"></path></clipPath><mask id="maskedText"><path d=" M 2.465726266298063 1.4427723017060985 C 2.461327703976727 1.4551659716086651 2.4570168622714865 1.4675721730278166 2.453533100660856 1.477284098381193 C 2.4341719075370287 1.4855548993272936 2.4137705985366464 1.4753291817939327 2.4011764243687197 1.4928983680461045 L 2.3550604433359146 1.4922717922168545 C 2.352804770350614 1.4634493040713514 2.3505490973653136 1.434501500759998 2.3483936765126936 1.4060800211452145 C 2.349935053052648 1.4041125730413693 2.3510628895452985 1.401631332757539 2.352504013952574 1.401318044842914 C 2.3619277144244952 1.3994633803883338 2.371664702811041 1.3989370566917636 2.380887899017602 1.3963054382089133 C 2.387729353448508 1.3935721668902634 2.394254569886689 1.3901057769601288 2.400349344274109 1.385966937026287 C 2.4137705985366456 1.376355263805591 2.4231065783924723 1.3653024661776194 2.417667900194581 1.3465929119162123 C 2.4163964437202554 1.3427997617872682 2.416445023802998 1.33868812023875 2.4178057468770158 1.3349260699755758 C 2.4191586204806383 1.3311754909954998 2.4217486721226296 1.3279975948682106 2.425149215595827 1.32591590955096 C 2.436314796873064 1.3210536811159792 2.4366280847876887 1.3118555479425882 2.4346856997170137 1.3017300825419071 C 2.435500248295039 1.2899504569520057 2.436214544740384 1.2780580477128392 2.4370416248349933 1.266278422122938 C 2.436415049005743 1.2573935768641717 2.435913788342343 1.248496200088821 2.4353999961623582 1.2396113548300547 C 2.4353999961623582 1.2283329899035533 2.4385704698583637 1.2147989519917517 2.4336581153570434 1.2063276467802906 C 2.426711224576696 1.1970952379296222 2.4166699728917385 1.1906754212785837 2.4053744824246945 1.1882446683481338 C 2.388462314327473 1.1849556421002305 2.371339490609604 1.1828618754436069 2.3541331111086246 1.181978910055633 C 2.3479563938196475 1.177727764712896 2.341523923589148 1.1738607494279374 2.3348721701174764 1.1703997887310913 C 2.308743958037748 1.158407127359245 2.3084306701231228 1.158206623093885 2.310385586710383 1.1201609387418205 L 2.3276038904981764 1.1378178456100874 C 2.3393603187898084 1.123654692185512 2.344605611140751 1.1051938106936414 2.342052729120683 1.0869649513081514 C 2.3473786236693086 1.066287948942899 2.3318019485541517 1.050623553211647 2.3288319791235064 1.0286683361547246 L 2.3542458947578893 0.9800836463546736 C 2.36705310470776 0.9795698541746887 2.3812889075483223 0.983191462467754 2.389797807309538 0.9687175608120773 C 2.403018557306715 0.9509353387779603 2.4021914772121047 0.9300578321473477 2.40250476512673 0.9094936134313603 C 2.415036281711731 0.9000824444760243 2.411514925551346 0.8856837319198575 2.4136703464039657 0.873001837135836 C 2.4197504057728194 0.8696917300374958 2.4247883506862875 0.8647535893729599 2.428219437159153 0.8587409712621044 C 2.4316542832453627 0.8527073012369455 2.433358398590105 0.845843141973009 2.4331443231770584 0.838903580508047 C 2.4302746058790934 0.8117101895185937 2.4433951037435895 0.7923865909445215 2.4563025658261415 0.7719226243612141 C 2.4629682045618555 0.7614932320881481 2.4606133190268737 0.747705757101078 2.450863887628251 0.7400800407187254 L 2.438570469858364 0.7194155698700578 C 2.4399113421329592 0.7147663772170223 2.4435830764923647 0.7090770686874317 2.4421544836016746 0.7056309016265563 C 2.439543120145572 0.6996349914958284 2.4355953407702526 0.6943155623918419 2.430612956826888 0.6900792895445693 C 2.425654425530761 0.6858519540088941 2.4197881870726055 0.6828244946876532 2.4134698421386065 0.6812320388355584 C 2.4062892831354006 0.6753422260406077 2.3994345435634052 0.6688383689329919 2.391852976029479 0.6636879156165563 C 2.379995706133495 0.6573277881503969 2.3708267227893787 0.6469086911140456 2.3660255203477902 0.6343391037744828 C 2.367566896887746 0.6331987357652477 2.3702235784037664 0.6322714035379576 2.3705368663183917 0.6308177476140974 C 2.380060818922993 0.5820325535486867 2.380060818922993 0.5820325535486867 2.364484143807836 0.5424454926566669 C 2.3609001300645254 0.5334603952652208 2.3578299085012002 0.5243625142245097 2.3542458947578893 0.5153648853164787 C 2.371790017976892 0.4978959511969866 2.368581949731131 0.47764502039562423 2.362128218689856 0.45696801803037174 C 2.36038633788454 0.4514917452827261 2.3553737312505394 0.4455016803550954 2.35660181987587 0.44105299196741987 C 2.36254175873716 0.4197494137729173 2.3700230741384063 0.39877165500962486 2.377090849492347 0.3758891057254121 L 2.3292329876542266 0.35149024293441417 C 2.2995143359921046 0.33844265257613126 2.2683517699308613 0.3289693671050298 2.236399512792535 0.32326926758499075 C 2.2230542044228923 0.3118593800164002 2.204845288203175 0.30796959340809704 2.1880027957412596 0.31293076640236456 L 2.1291046677917524 0.31293076640236456 C 2.1078888102133453 0.3123167220896995 2.0851441076115673 0.30611362138012377 2.0659834187531 0.3120034341750745 C 2.0320606033575013 0.3223419353577007 1.9974234915165567 0.3204747393865355 1.9635132076375428 0.3258507600015011 C 1.9407864370810026 0.3240220066986913 1.9179137086207192 0.3256615076487356 1.8956801083629293 0.33071298843648167 C 1.8722085777992221 0.33526192895683726 1.846907445814104 0.33071298843648167 1.8225085830231063 0.33494864104221217 C 1.819538613592461 0.3327806886730069 1.8163681398964553 0.3285450360672764 1.8134984225984903 0.32868288274971147 C 1.7887946090858577 0.32771856286720663 1.7652085650822735 0.33901678915566047 1.7504774256925175 0.35887130620298 C 1.7468577342011282 0.35824952298649193 1.7431793079656654 0.35803932720160836 1.7395123486806412 0.35824473037372995 C 1.7313167368340503 0.3479062291911037 1.7233216292528195 0.35639006591914973 1.7152262695389084 0.35824473037372995 C 1.6844864593559001 0.35824473037372995 1.6537466491728914 0.3589715583356601 1.6222925425445378 0.3595856026483251 C 1.6067551196709333 0.3578357678252435 1.5911363795414004 0.36209012614410874 1.5786327387623926 0.3714780118874916 C 1.5725304371361564 0.37644124861602796 1.5641153237073455 0.3774461839008599 1.557015872653265 0.37405950430400187 C 1.5365268430367873 0.36631502705447094 1.5209501679216308 0.3774680768151223 1.5027042797738686 0.38501204979929315 C 1.4844583916261065 0.392556022783464 1.4610996447116635 0.37778136472974727 1.4433800802604717 0.3953505509819194 L 1.4078156361922374 0.40568905216454565 C 1.3862990222157898 0.39721774695308465 1.3648826603720225 0.39028781828157877 1.34515805326723 0.41013774055222113 L 1.34515805326723 0.43229346187450374 C 1.34515805326723 0.4334338298837389 1.3420878317039047 0.43446141424370904 1.3404462030312694 0.43550153012026416 C 1.3001699087270748 0.4038719822597204 1.3001699087270748 0.4038719822597204 1.2660465890661157 0.4185463881807572 C 1.2406976450890501 0.41753767923250507 1.2153709672857742 0.4210381833684914 1.191245966570242 0.4288848893633833 C 1.1652349683868817 0.4350244533790608 1.1388681446197053 0.43954448031057675 1.112297412084733 0.44241892727518484 L 1.014839807603176 0.45916103343274695 C 0.9860673445610495 0.46231972145631145 0.9574749604746803 0.4669456981677691 0.929174360228103 0.4730208907757591 C 0.9145048470267682 0.47771984766635056 0.8991888554448835 0.48008786403461545 0.8837852071572304 0.48003854006335944 C 0.8374812533756494 0.47769514646196415 0.7967036984080544 0.4949510447995112 0.7569036017340898 0.5157282992974437 C 0.7328305583743019 0.5157282992974437 0.7081309391852639 0.5281345007165951 0.6851732008015413 0.5119688443219432 C 0.6652982154977289 0.5161042447949936 0.6431675572086163 0.5112420163600131 0.6260495055535042 0.5267435023756599 C 0.6227220913446906 0.5268956038640248 0.6194379423679806 0.5275591963857024 0.616312517166958 0.5287109504795051 L 0.5922770683569253 0.5287109504795051 C 0.5825828536607696 0.5274202345129476 0.5727603178934424 0.5274202345129476 0.5630661031972867 0.5287109504795052 C 0.5341684259522733 0.536154671330996 0.50599757666919 0.5319190187252655 0.47699964729149646 0.5299641021380053 C 0.4518060715474585 0.5278179446067566 0.42692647531472117 0.5228966596086932 0.4028130691082875 0.5152896962169685 C 0.3917635929613378 0.5115036629025239 0.38050393603505966 0.5083613357558739 0.36909075797804936 0.5058785272616326 C 0.3643192724779455 0.5046482318411101 0.35927810736276955 0.5049910486492912 0.3547171084550521 0.5068559855552626 C 0.35013502154482484 0.5087226236654478 0.34626758163266136 0.5120018264059543 0.3436768423436657 0.5162170284442588 C 0.3334385932937195 0.5203524289173092 0.3320977210191243 0.5300016966877603 0.33035584021380915 0.5391622353113964 C 0.321271686174276 0.5411072172125373 0.3125567891429443 0.5444916432441225 0.30454091604870603 0.5491874485793977 C 0.2835300255258633 0.5668401969676472 0.2716578547333648 0.59306866124564 0.2722597293257422 0.6205043094646411 C 0.2735215291712731 0.6415561044240693 0.27053841254421307 0.662646738977384 0.26348766771624127 0.6825227850438135 C 0.26086264290873756 0.6937986679099357 0.25979588626620376 0.7053811995187912 0.26031719402023584 0.7169468611028125 C 0.23287739912154887 0.7314005368920271 0.20216843099380505 0.7385187669233246 0.17116798503453523 0.73761133195148 C 0.1636362053189261 0.737184289245127 0.15608171111397373 0.7378127759210275 0.14872403883079766 0.7394785279226452 C 0.12644300234266503 0.7455813764995409 0.10431234405355244 0.7527368724695769 0.07869792415380938 0.7606191964015427 C 0.07173040093254857 0.7673360892911035 0.06353478908595755 0.7812836672502101 0.05185541562873619 0.7853188155905807 C 0.024486583407092866 0.7945921378634817 0.01516313506785183 0.8179508847779247 0 0.838414851361232 C 0.004812102368640603 0.8510340885623284 0.009022691941201089 0.8617735982756747 0.01312049786449665 0.872625891638286 L 0.01312049786449665 0.8846812105930574 C 0.01124117470711894 0.8942810822377985 0.01580674821620276 0.9039905352337834 0.0243988627909979 0.9086665333367503 C 0.02572748374777778 0.9123440962844742 0.027553137317426812 0.9158225355338054 0.0298250094723036 0.9190050345193765 C 0.06068937182914247 0.9494070916488067 0.08090805460744144 0.9889653840411308 0.08746998576331044 1.03178868378439 C 0.08746998576331044 1.0349967520301502 0.09218183599927099 1.0376784965793406 0.09463801324993126 1.040560745393891 L 0.0954650933445414 1.0636187359102938 C 0.09156779168660589 1.0755988657655553 0.08757023789599039 1.0875915271374017 0.08367293623805494 1.099584188509248 C 0.07599111657144908 1.1235569797363558 0.06686817249756793 1.1471287624327435 0.06102848576895736 1.1719411652710465 C 0.05543162717376482 1.189036207280262 0.05872119161548339 1.2077961233536059 0.06980054737845831 1.2219669794783727 C 0.07964296088649614 1.2343184946436372 0.08506899300761639 1.2496084355638022 0.08521431277801012 1.2654012159619876 C 0.08521431277801012 1.2702634443969683 0.09148007107051093 1.2745993491353786 0.0947507968991963 1.2791858842054893 C 0.09443696318515399 1.282938789587983 0.09443696318515399 1.2867113437494972 0.0947507968991963 1.2904642491319906 C 0.09092438577271111 1.2931055737655037 0.08800212927213436 1.2968590110072626 0.08637974382041524 1.3012162903619222 C 0.08475023983507429 1.305583567298965 0.08448799818523778 1.3103432532434982 0.08562785282531515 1.3148631119229885 L 0.07599111657144908 1.3355275827716562 C 0.0905265340210652 1.3630475627875422 0.10918907425673141 1.3881802907724854 0.1313302938108153 1.4100525119026597 C 0.14546584451869726 1.4369326149774881 0.16822307863706 1.4592512460153757 0.16883712294972503 1.4927605213636697 C 0.16883712294972503 1.5016453666224359 0.18225837721226162 1.510229455483162 0.1893261525662025 1.518901264959983 C 0.1928099141768329 1.5235629891296034 0.19536634356017324 1.5301796298864843 0.19957693313273372 1.5325480865210492 C 0.21664288653796465 1.5424185637446688 0.23002594959887457 1.5575833955562914 0.23769780658430828 1.5757442241895494 L 0.21945191843654605 1.588463713523326 L 0.20203311038339394 1.6012834549897825 C 0.19506050714205042 1.610994897306624 0.18295544211078596 1.6155941311464683 0.17129330020038536 1.612962828447004 C 0.1557495816485076 1.6125669853170392 0.1405820872001684 1.6177755295982723 0.1285608286455303 1.627637234368041 C 0.11496000594532696 1.6381918139520457 0.10218268852783607 1.6497668067469726 0.09033970306127548 1.6622618146924002 C 0.0865261715735684 1.6687911556975485 0.0839754789963606 1.6759798576109792 0.08282079311027485 1.6834526092376374 C 0.0702140874257634 1.6845929772468724 0.055865500935936785 1.6813849090011121 0.048396717051275795 1.6963726028367743 C 0.04193045449341504 1.713114708994336 0.04439916326066029 1.7240672544896272 0.05934926254656703 1.74399236585978 C 0.06355985211912762 1.7555714871843213 0.06775791017510313 1.7671506085088624 0.07205622036375858 1.7788299819660838 C 0.08230700093028975 1.797539536227491 0.10839761846026291 1.7914366876505956 0.11950054215457423 1.8098329539973774 C 0.13060346584888555 1.82822922034416 0.15458878859257835 1.8240938198711094 0.17589236678708087 1.8345325731864155 C 0.17373694593446065 1.865548076734294 0.19760948502888848 1.8750594978223103 0.2224093563506065 1.8837313072991315 C 0.23266013691713766 1.887352915592197 0.24289838596708385 1.8756735421349755 0.24120663122810865 1.8622397563558537 C 0.2402788237818262 1.8584174119751615 0.2389384396812927 1.8547071951702367 0.23720907743749314 1.8511744272112973 C 0.2569125920013152 1.830084734647253 0.2696790407180034 1.8034628184641486 0.27378857434911247 1.7748950857583938 C 0.2747033750598176 1.7682784450015125 0.28095660183573334 1.762288380073882 0.28465339922830885 1.7559850272316264 C 0.28885145728428435 1.759606635524692 0.2926359752929548 1.7663235284142524 0.2971849158133103 1.7663235284142524 C 0.3264961331056288 1.7704589288873027 0.3337769442415147 1.7894692395467502 0.3318220276542544 1.8155222625269687 L 0.2740266731642276 1.8568762672574735 C 0.286432874583379 1.86804184853471 0.2959568271879802 1.8766134058788508 0.3047664833472362 1.8848842068249514 C 0.31456303930201573 1.8776530607232893 0.32483724460810304 1.8710924740425074 0.33551882504683006 1.8652473203362543 C 0.34805034163183135 1.859558011806664 0.36010566058660276 1.8786811061153759 0.37465475134178955 1.8670017326581547 C 0.37590790300028976 1.862352540005119 0.37742421650707486 1.8566757629921133 0.37885280939776506 1.8512997423771478 C 0.387379267770812 1.8475278684176741 0.3962741672412349 1.8446510949817727 0.4053945615247983 1.842715653516422 C 0.41400371341869424 1.8417883212891315 0.42322690962525533 1.8530541546990478 0.43162302573720635 1.844470065838322 C 0.44187380630373757 1.8341315646556953 0.43439249090249166 1.8238055949896543 0.43162302573720635 1.812539761579738 C 0.4308712127390577 1.8071900254056565 0.4308712127390577 1.8017614359089225 0.43162302573720635 1.796411699734841 L 0.44925486957230343 1.7919630113471656 C 0.45499430416823405 1.8115998978358627 0.45499430416823405 1.8115998978358627 0.4674882262034806 1.8032413762736668 L 0.4853205743039377 1.7915620028164454 C 0.4851636202005245 1.797258833808271 0.4841627446863223 1.8029008999980347 0.48235060487329245 1.808304108974007 C 0.4751536353228437 1.8197912853953853 0.47491717987105886 1.8343212316264819 0.48173656056062725 1.8460365054114467 C 0.48365043434578237 1.8514102266953416 0.48462129123909986 1.8570742651646523 0.48460627785859256 1.8627786115690086 C 0.4798743003804504 1.8625278661143183 0.47514272175266 1.863279452611151 0.47072135748241095 1.8649841584879692 C 0.46629247323979883 1.8666967482461627 0.4622712858380937 1.8693177769772102 0.45891666885933957 1.87267850967116 C 0.45208730865686486 1.8795074051372203 0.44844836321836834 1.888895884368541 0.4488914555913384 1.8985435599026033 C 0.4328135198127815 1.9047466606121792 0.4164097646030146 1.9104359691417698 0.4005323330898176 1.9174536184293705 C 0.38465490157662074 1.9244712677169713 0.3629377833348132 1.922215594731671 0.353288515564362 1.9425166515993733 C 0.3625117117709231 1.9469653399870486 0.3737900766974245 1.949133292356254 0.3791159712460501 1.9558501852458148 C 0.38636354955218677 1.9664705257320823 0.39237974334345593 1.9778806934116802 0.3970485714791874 1.9898607212575086 C 0.4070110456590789 1.9882745652266738 0.4171617371032993 1.9882745652266738 0.4271242112831909 1.9898607212575086 C 0.4420514700183298 1.995839703889281 0.4591281360285581 1.9916875525605335 0.4696436470561009 1.9795222200748828 C 0.478766591129982 1.9711511669961015 0.4877892830711831 1.9789081757622173 0.4967994434957991 1.9812766323967828 L 0.5422011280832595 1.9929560058540041 C 0.5570509752364862 1.984183944244503 0.5717128496409379 1.9750860632037923 0.5866629489268448 1.9666398210255007 C 0.5947826952843981 1.9608420277954899 0.6053409979876518 1.959706368773853 0.6145079787787179 1.963644788561686 C 0.6457615811417116 1.9785322302646673 0.665749350094789 1.9636447885616855 0.6813260252099458 1.9374915134487878 C 0.6822408259206509 1.9359501369088326 0.6844964989059512 1.935223308946902 0.6861381275785864 1.9341957245869321 C 0.690342078445968 1.9366611303480061 0.693688231345881 1.9403572077341849 0.6957247377661125 1.9447848561012584 C 0.6977771628957152 1.949221677166736 0.6984369059116644 1.9541763035249236 0.6976169967704479 1.95899559590865 C 0.6966896645431577 1.9699481414039413 0.6954615759178275 1.9809132184158176 0.6944339915578575 1.991239188081859 C 0.71606338918357 2.0031315973210253 0.7364521666673675 2.013357314854386 0.7572544841984699 2.0092344458979214 C 0.7891221308741286 2.0029686876054207 0.8199120671234772 1.991351971731124 0.8513160476854909 1.9820410549084677 C 0.852639845626809 1.9930817863470771 0.8511972019698277 2.0042784236848417 0.8471179896295157 2.0146229980294716 C 0.8430739661119702 2.024995337638524 0.8364847319533812 2.034183203711847 0.8279573007710481 2.041340191388695 C 0.8063279031453355 2.0588843146076967 0.776715929454977 2.0555008051297463 0.7530438946259093 2.0675937186342725 C 0.7512017616879141 2.0820676202899495 0.7494598808825987 2.095163055121276 0.7477180000772836 2.108947723364778 C 0.7539501701857629 2.114171486820201 0.7608278232295791 2.1185726793681416 0.768181966660591 2.1220431581961043 C 0.7753582688172519 2.1250938182777186 0.7834309345679544 2.1252776956642623 0.7907386965135937 2.1225569503760893 C 0.8159395763660316 2.106742176445817 0.8392983232804745 2.1203889980068835 0.8632836460241673 2.1248376863945593 C 0.8647312473171482 2.1435387274235573 0.8739941949908161 2.160763442498462 0.8887978137912304 2.172282008185375 L 0.9328586261040956 2.172282008185375 C 0.9620570597471492 2.1715551802234447 0.9903406926794975 2.1728960524980403 1.0165816884084906 2.1891243664756166 C 1.034029892770238 2.198059481472764 1.0544736044049277 2.199077103726009 1.0727228827092972 2.1919188946740724 C 1.0854298405264888 2.1881594396985715 1.0988636263056102 2.186643126191787 1.111971592653522 2.1841618859079563 C 1.1175105229840927 2.1823072214533763 1.1238640018926884 2.1777582809330207 1.128575852128649 2.1791492792739557 C 1.1483505852997813 2.1847383356708665 1.1659824291348784 2.178422451312026 1.1851431179933458 2.17450008662092 C 1.211672338603794 2.1690238138732747 1.237186506370857 2.155702811743418 1.2655829229524702 2.1607154183774187 C 1.2713223575484007 2.1710413880434603 1.2743549845619713 2.1827332930172663 1.2860719525689475 2.1887233579448973 L 1.332701725781738 2.179725729036866 C 1.333497366293645 2.1686630974768915 1.3376212593535475 2.1580999900416753 1.3445314774379797 2.149424521934332 C 1.3514058845279573 2.14078314912989 1.3607525628411112 2.1344441951756927 1.3713238598967128 2.1312538228860802 C 1.3924394653424406 2.124123389949215 1.4072893124956671 2.0984839070163015 1.4339814428217204 2.109336200378913 C 1.448831289974947 2.0990102307128713 1.4515255660407225 2.076992356073024 1.472503324804015 2.072994802282408 C 1.47605180901272 2.077006933296966 1.4801581161359416 2.0804886428310443 1.4846964904412214 2.0833333034650345 C 1.5051980515742838 2.093671804647661 1.5182057657895154 2.088496288298055 1.5256870811907612 2.0677190338001226 C 1.5275292141287564 2.0621425089197967 1.527015421948771 2.0546987880683063 1.5304991835594017 2.0510897112918256 C 1.5364340001876369 2.046415881542834 1.5429875990050888 2.0425866230317355 1.549973160332494 2.0397110942326453 C 1.5637578285759957 2.035888981674219 1.5778432532175373 2.032580661295779 1.590963751082034 2.027931468642743 C 1.5973312104728359 2.025085685998218 1.6034045810176227 2.0216229833724757 1.609096855580531 2.017592967460117 C 1.6294597979225238 2.01943028025185 1.6499001594667655 2.0150336576917676 1.6677067586485828 2.004986261775606 C 1.703058166934872 2.0070539620121304 1.735539857923196 1.994647760592979 1.7682345846934648 1.984309259410353 C 1.7747832350591772 1.9824989260120967 1.780856719784972 1.9792782682666574 1.7860293382441665 1.974873027421847 C 1.7912143321248184 1.9704499835087919 1.7953858430068401 1.964962053209083 1.7982600984311283 1.958782560126705 C 1.801944364307119 1.95816851581404 1.8057790083821288 1.9577549757667352 1.8096261839737244 1.95744168785211 C 1.834689217143728 1.9617775925905208 1.8569702536318604 1.9489703826406493 1.8807425405936082 1.9454490264802635 C 1.9126165436850606 1.9479904844886737 1.9446725865208756 1.9439466882666707 1.9749168877298937 1.9335691487576823 L 2.0101680438835032 1.9335691487576823 C 2.0361298802129295 1.9362916808569322 2.0613252835149893 1.9237599101895377 2.074818137945526 1.9014132772005683 C 2.0828818979942545 1.8917474347066208 2.092064962497963 1.8830733719459034 2.102174438650584 1.8755732900022952 L 2.125645969214292 1.9181804463913004 C 2.129568582228077 1.9193574282312218 2.133643520710206 1.919948611016194 2.137738882718818 1.9199348587132004 C 2.163152798353201 1.91589971037283 2.171573977498322 1.8878917708053515 2.19399286066889 1.8804480499538607 C 2.209237282003926 1.8781627991484626 2.2243536686132312 1.8750926752493953 2.239281761607086 1.871249916780469 C 2.252502511604262 1.8680418485347094 2.265597946435588 1.864533023890909 2.2787309758166696 1.8609114155978435 C 2.294522837294675 1.8588439331549975 2.308419118708719 1.849460577078224 2.3162378049555796 1.8355852205795555 C 2.3130673312595738 1.8187428622893136 2.3089695253362783 1.8017501258000512 2.3068141044836583 1.7839052461830094 C 2.3037268793887535 1.7719221016633986 2.30884700930724 1.7593304501541198 2.3194208101681695 1.7529022741517155 C 2.3260750454748056 1.7496942059059555 2.3361127902593912 1.74825308149868 2.338782003291997 1.7430775651490742 C 2.3444766284838767 1.7296989606204416 2.3490374248212307 1.7158656629060431 2.3524162933364785 1.7017235604185694 L 2.3114257025869387 1.6676127722741958 L 2.331200435758071 1.6469483014255282 C 2.3348847016340617 1.646221473463598 2.341451216324602 1.6469483014255282 2.3419650085045873 1.6444419981085274 C 2.3504613767492186 1.6215970433740703 2.3581557279324095 1.5985515843742524 2.3661383039970554 1.5753933417251695 C 2.3727251059949985 1.5788122634533943 2.379582101685519 1.5816833160499755 2.3866398651301184 1.5839774305858956 C 2.4025172966433144 1.587899795277001 2.41122670066989 1.580217975610395 2.411840744982556 1.5633004282206429 C 2.412878763345894 1.553800184372156 2.409022976133106 1.5444226455816907 2.401602495932609 1.5384003047662453 C 2.401602495932609 1.5096655372368366 2.401602495932609 1.5096655372368366 2.423833406354402 1.502735608565331 L 2.4682075065818925 1.5061441810764513 C 2.4734923170959737 1.4928670561408093 2.4780398279307665 1.479308194488955 2.4818292651097886 1.4655295358244609 C 2.4823756480011716 1.462955836531367 2.4823756480011716 1.4602961002851003 2.4818292651097886 1.4577224009920053 C 2.481288534975883 1.4551530906067658 2.4802265331866753 1.452722002173639 2.478708917480123 1.4505794365385545 C 2.4771814861977774 1.4484526916631406 2.4752265787727277 1.446668518511021 2.472969482884193 1.445341262606024 C 2.4707628688562475 1.443984542334781 2.4682946096673173 1.443109121688188 2.465726266298063 1.4427723017060985 Z" fill="#ffffff" transform="matrix(1,0,0,1,0,0)" fill-rule="nonzero"></path><path d=" M 2.4928820627377606 1.5436635417319455 C 2.490589566423214 1.5432136526761324 2.4882251330289558 1.5432864703712454 2.4859646655828405 1.5438765775138907 C 2.4813741688246536 1.5450903965447154 2.477578646223164 1.5483147482692818 2.475638695916799 1.5526486391233918 C 2.4746628745989 1.554790575434867 2.474183109685959 1.5571251457701618 2.4742351660592785 1.5594783156622176 C 2.4737799406205 1.563303628191103 2.474914179818172 1.5671481818870978 2.477372901305162 1.5701138074186123 C 2.4798316227921524 1.5730794329501268 2.4833994563249258 1.5749063581159013 2.4872428802745103 1.5751677744266392 C 2.491889741179964 1.5761030628179111 2.4967096308192147 1.5748715694842463 2.5003383151058367 1.571821859498444 C 2.503980354901707 1.568754112801514 2.5060545964630005 1.5642146972338935 2.5059900290856723 1.5594532526290477 C 2.50625646526767 1.5556264648222455 2.5050404643582915 1.5518438494473148 2.502593988091137 1.5488891841478913 C 2.5001567240354703 1.545953904995077 2.496674487399524 1.54408023702451 2.4928820627377615 1.5436635417319455 Z" fill="#ffffff" transform="matrix(1,0,0,1,0,0)" fill-rule="nonzero"></path><path d=" M 2.4835460828819347 1.3832350664107567 C 2.4851877115545697 1.3832350664107567 2.4886714731652004 1.377558289397751 2.4880574288525352 1.3760043813412108 C 2.48703899289834 1.3723244432892234 2.4846365765321825 1.3691810947727556 2.481353067479559 1.3672323197317098 C 2.478096409184818 1.365305194768999 2.474216211316893 1.3647251883669567 2.4705383686667033 1.3656157540922444 C 2.469410532174053 1.3670694100161045 2.467154859188753 1.3688238223380047 2.4674556155867924 1.3699641903472397 C 2.467989691430512 1.3737976762419355 2.4699441853330626 1.377290719120406 2.4729318883344384 1.3797513048001262 C 2.4758970362527633 1.382222179449541 2.4796934262565262 1.3834682200883202 2.4835460828819347 1.3832350664107564 Z" fill="#ffffff" transform="matrix(1,0,0,1,0,0)" fill-rule="nonzero"></path><path d=" M 1.2637896618717588 0.582651422495237 C 1.1254038603226149 0.582651422495237 1.0049902407928402 0.6132041319281649 1.0049902407928402 0.6671206779862731 C 1.0049902407928402 0.6850928600056423 1.0157735500044618 0.7030650420250117 1.037340168427705 0.7030650420250117 C 1.0589067868509483 0.7030650420250117 1.06969009606257 0.6886872964095163 1.0894594962838762 0.6868900782075793 C 1.0912567144858132 0.6886872964095163 1.0912567144858132 0.6922817328133901 1.0912567144858132 0.6994706056211379 C 1.0912567144858132 0.8702063348051468 1.0481234776393267 1.0535225914027142 1.033745732023831 1.2134750113751016 C 1.0193679864083356 1.3842107405591104 0.9888152769754077 1.562135342550867 0.9888152769754077 1.729276635331002 C 0.9888152769754077 1.813745890822038 1.0031930225909031 1.9233762011401911 1.0427318230335159 1.9233762011401911 C 1.0463262594373897 1.9233762011401911 1.0463262594373897 1.9197817647363171 1.0481234776393267 1.9197817647363171 C 1.067892877860633 1.9125928919285695 1.1289982967264887 1.9143901101305063 1.1289982967264887 1.9054040191208217 C 1.1289982967264887 1.9036068009188847 1.1307955149284257 1.8982151463130739 1.1325927331303625 1.896417928111137 C 1.1325927331303625 1.892823491707263 1.1289982967264887 1.892823491707263 1.1289982967264887 1.8874318371014522 C 1.1307955149284257 1.8874318371014522 1.1325927331303625 1.8910262735053263 1.1343899513322995 1.8910262735053263 C 1.1343899513322995 1.8820401824956416 1.1343899513322995 1.8802429642937046 1.1379843877361733 1.8784457460917676 C 1.1397816059381103 1.8838374006975784 1.143376042341984 1.8910262735053263 1.143376042341984 1.8910262735053263 C 1.145173260543921 1.8910262735053263 1.145173260543921 1.8892290553033892 1.145173260543921 1.8856346188995154 L 1.150564915149732 1.8946207099092 C 1.150564915149732 1.8856346188995154 1.145173260543921 1.8820401824956416 1.143376042341984 1.8766485278898308 C 1.150564915149732 1.8766485278898308 1.148767696947795 1.8838374006975784 1.152362133351669 1.8838374006975784 C 1.152362133351669 1.8838374006975784 1.145173260543921 1.867662436880146 1.145173260543921 1.869459655082083 C 1.1469704787458581 1.869459655082083 1.148767696947795 1.8658652186782092 1.148767696947795 1.8640680004762722 L 1.1577537879574797 1.8766485278898308 L 1.1577537879574797 1.87125687328402 C 1.1595510061594165 1.869459655082083 1.1631454425632906 1.8784457460917676 1.1649426607652273 1.8820401824956416 C 1.1649426607652273 1.8766485278898308 1.1631454425632906 1.8730540914859568 1.1631454425632906 1.869459655082083 C 1.1631454425632906 1.8640680004762722 1.1721315335729752 1.867662436880146 1.1721315335729752 1.8568791276685244 C 1.1721315335729752 1.8532846912646506 1.1739287517749122 1.8622707822743352 1.175725969976849 1.8622707822743352 C 1.175725969976849 1.8604735640723984 1.177523188178786 1.8748513096878938 1.1829148427845968 1.8748513096878938 C 1.1847120609865338 1.8748513096878938 1.1883064973904076 1.87125687328402 1.1901037155923446 1.8640680004762722 C 1.1919009337942814 1.8658652186782092 1.1919009337942814 1.8730540914859568 1.1972925884000922 1.8730540914859568 C 1.1972925884000922 1.8604735640723984 1.2152647704194617 1.8532846912646506 1.2296425160349571 1.8532846912646506 C 1.2512091344582004 1.8532846912646506 1.2422230434485155 1.840704163851092 1.2566007890640112 1.8245292000336595 C 1.2566007890640112 1.8227319818317227 1.258398007265948 1.819137545427849 1.258398007265948 1.8173403272259119 C 1.2566007890640112 1.8047597998123532 1.2566007890640112 1.7903820541968578 1.2566007890640112 1.7778015267832992 C 1.2566007890640112 1.7220877625232542 1.2655868800736958 1.6645767800612723 1.2673840982756328 1.6088630158012274 C 1.2763701892853174 1.4111690135881645 1.3051256805163085 1.2332444115964076 1.3284895171414886 1.0463337185949664 C 1.3356783899492364 1.0481309367969034 1.3374756081511734 1.0481309367969034 1.3374756081511734 1.0499281549988404 C 1.3374756081511734 1.0625086824123988 1.3770144085937859 1.0643059006143358 1.402175463420903 1.0643059006143358 L 1.4237420818441462 1.0643059006143358 C 1.5585334469894163 1.0643059006143358 1.6717581937114434 0.9438922810845611 1.6717581937114434 0.8234786615547864 C 1.6717581937114434 0.6311763139475344 1.402175463420903 0.582651422495237 1.2637896618717588 0.582651422495237 M 1.5297779557584255 0.832464752564471 C 1.5261835193545514 0.9259200990651918 1.4219448636422092 0.9654588995078044 1.3374756081511734 0.9834310815271737 C 1.346461699160858 0.9295145354690656 1.371622753987975 0.6922817328133901 1.3770144085937859 0.6797012053998315 C 1.3770144085937859 0.6779039871978947 1.3806088449976597 0.6779039871978947 1.3824060631995967 0.6779039871978947 C 1.3877977178054075 0.6779039871978947 1.394986590613155 0.6797012053998315 1.3985810270170291 0.6797012053998315 L 1.4057698998247767 0.6832956418037055 C 1.4794558461041911 0.6994706056211379 1.5297779557584255 0.7444010606695612 1.5297779557584255 0.832464752564471" fill="NA" transform="matrix(1,0,0,1,0,0)" fill-rule="nonzero"></path></mask></defs></svg>