<svg width="395" height="350" viewBox="0 0 395 350" fill="none" xmlns="http://www.w3.org/2000/svg">
<g clip-path="url(#clip0_1_14)">
<ellipse cx="208" cy="174" rx="189" ry="176" fill="white"/>
<path d="M356 174.5C356 254.857 289.962 320 208.5 320C127.038 320 61 254.857 61 174.5C61 94.1426 127.038 29 208.5 29C289.962 29 356 94.1426 356 174.5Z" fill="#EA2121"/>
<ellipse cx="208.5" cy="174.5" rx="116.5" ry="115.5" fill="white"/>
<path d="M117 210.8C112.333 210.8 108.867 210.133 106.6 208.8C104.333 207.333 102.867 205.733 102.2 204C101.533 202.267 101.2 200.933 101.2 200C101.2 198.267 101.8 196.8 103 195.6C104.2 194.4 105.867 193.8 108 193.8C109.067 193.8 110.067 194.133 111 194.8C111.8 195.333 112.2 196.2 112.2 197.4C112.2 198.733 111.733 199.733 110.8 200.4C109.867 200.933 108.8 201.2 107.6 201.2C106.667 201.2 105.867 201.133 105.2 201C104.533 200.733 104.2 200.6 104.2 200.6C104.2 202.333 105.067 204.133 106.8 206C108.533 207.733 111.467 208.6 115.6 208.6C121.733 208.6 127.333 206.867 132.4 203.4C137.467 199.8 142.267 195.2 146.8 189.6C151.333 184 155.8 178 160.2 171.6C164.6 165.2 169.2 159.067 174 153.2C180.4 145.333 186.933 138 193.6 131.2C200.267 124.267 207.067 118.333 214 113.4C220.933 108.333 228 104.8 235.2 102.8C236.267 102.533 236.867 102.733 237 103.4C237.133 104.067 236.667 104.533 235.6 104.8C229.867 106.4 224.267 109.467 218.8 114C213.333 118.533 207.933 124.067 202.6 130.6C197.4 137 192.133 143.867 186.8 151.2C181.6 158.4 176.267 165.533 170.8 172.6C165.467 179.667 159.933 186.067 154.2 191.8C148.467 197.533 142.533 202.133 136.4 205.6C130.267 209.067 123.8 210.8 117 210.8ZM187.8 167C179.933 167 173.8 165.933 169.4 163.8C165 161.667 162.8 158.8 162.8 155.2C162.8 153.333 163.4 151.867 164.6 150.8C165.8 149.6 167.133 148.8 168.6 148.4C170.2 147.867 171.467 147.6 172.4 147.6C173.2 147.6 173.6 147.867 173.6 148.4C173.6 148.8 173.267 149.067 172.6 149.2C170.867 149.467 169.267 150.333 167.8 151.8C166.467 153.133 165.8 154.4 165.8 155.6C165.8 157.333 167.467 159.333 170.8 161.6C174.267 163.867 179.6 165 186.8 165C190.4 165 194.533 164.2 199.2 162.6C203.867 160.867 208.333 158.333 212.6 155C217 151.533 220.6 147.333 223.4 142.4C226.2 137.333 227.6 131.467 227.6 124.8C227.6 117.333 224.267 112.067 217.6 109C211.067 105.8 202.067 104.2 190.6 104.2C181.133 104.2 172.133 105.6 163.6 108.4C155.067 111.2 147.467 114.8 140.8 119.2C134.267 123.6 129.067 128.333 125.2 133.4C121.467 138.467 119.6 143.267 119.6 147.8C119.6 152.333 120.667 155.6 122.8 157.6C125.067 159.6 127.733 160.6 130.8 160.6C134.533 160.6 138.267 159.467 142 157.2C145.867 154.8 149.467 151.8 152.8 148.2C156.133 144.467 159.133 140.6 161.8 136.6C164.467 132.467 166.6 128.667 168.2 125.2C169.8 121.733 170.667 119.067 170.8 117.2C170.933 115.867 171.2 115.2 171.6 115.2C172.133 115.2 172.467 115.667 172.6 116.6C173 120.733 172.267 125.467 170.4 130.8C168.667 136 165.933 141.067 162.2 146C158.6 150.8 154.133 154.8 148.8 158C143.467 161.2 137.533 162.8 131 162.8C126.867 162.8 123.533 161.533 121 159C118.467 156.333 117.2 152.533 117.2 147.6C117.2 142.8 119.133 137.8 123 132.6C126.867 127.267 132.2 122.333 139 117.8C145.8 113.267 153.6 109.6 162.4 106.8C171.333 103.867 180.733 102.4 190.6 102.4C202.2 102.4 211.333 103.733 218 106.4C224.8 109.067 229.6 112.6 232.4 117C235.333 121.267 236.8 125.8 236.8 130.6C236.8 134.333 235.533 138.333 233 142.6C230.6 146.867 227.2 150.867 222.8 154.6C218.4 158.2 213.2 161.2 207.2 163.6C201.333 165.867 194.867 167 187.8 167Z" fill="#EA2121"/>
<path d="M179.04 206.432C178.592 206.432 178.096 206.304 177.552 206.048C176.976 205.824 176.688 205.44 176.688 204.896C176.688 204.224 176.992 203.376 177.6 202.352C178.208 201.328 178.96 200.272 179.856 199.184C180.72 198.096 181.568 197.072 182.4 196.112C183.232 195.152 183.856 194.4 184.272 193.856C184.624 193.888 185.04 193.904 185.52 193.904C186.032 193.904 186.48 193.888 186.864 193.856C186.416 194.4 185.824 195.088 185.088 195.92C184.384 196.752 183.632 197.648 182.832 198.608C182.064 199.536 181.312 200.448 180.576 201.344C179.872 202.24 179.296 203.04 178.848 203.744C178.4 204.448 178.176 204.96 178.176 205.28C178.176 205.504 178.272 205.664 178.464 205.76C178.656 205.856 178.976 205.904 179.424 205.904C180.192 205.904 181.04 205.616 181.968 205.04C182.928 204.432 183.856 203.712 184.752 202.88C185.648 202.048 186.448 201.264 187.152 200.528C187.856 199.76 188.352 199.2 188.64 198.848L189.024 199.184C188.736 199.504 188.24 200.064 187.536 200.864C186.864 201.632 186.048 202.448 185.088 203.312C184.16 204.176 183.168 204.912 182.112 205.52C181.088 206.128 180.064 206.432 179.04 206.432ZM188.64 190.208C188.256 190.208 187.968 190.096 187.776 189.872C187.584 189.616 187.488 189.328 187.488 189.008C187.488 188.656 187.68 188.288 188.064 187.904C188.448 187.52 188.848 187.328 189.264 187.328C189.712 187.328 190.032 187.456 190.224 187.712C190.416 187.936 190.512 188.16 190.512 188.384C190.512 188.864 190.32 189.296 189.936 189.68C189.552 190.032 189.12 190.208 188.64 190.208ZM198.706 206.432C197.01 206.432 196.162 205.936 196.162 204.944C196.162 204.304 196.37 203.616 196.786 202.88C197.234 202.144 197.778 201.408 198.418 200.672C199.058 199.904 199.698 199.152 200.338 198.416C201.01 197.68 201.554 197.008 201.97 196.4C202.418 195.76 202.642 195.216 202.642 194.768C202.642 194.608 202.562 194.48 202.402 194.384C202.274 194.256 202.082 194.192 201.826 194.192C201.442 194.192 200.898 194.384 200.194 194.768C199.522 195.152 198.658 195.808 197.602 196.736C196.578 197.632 195.362 198.848 193.954 200.384C192.546 201.888 190.93 203.776 189.106 206.048C188.818 205.984 188.386 205.952 187.81 205.952C187.234 205.952 186.738 206.016 186.322 206.144C187.25 204.8 188.162 203.488 189.058 202.208C189.954 200.928 190.77 199.76 191.506 198.704C192.274 197.648 192.882 196.784 193.33 196.112C193.778 195.408 194.002 194.976 194.002 194.816C194.002 194.528 193.858 194.384 193.57 194.384C193.25 194.384 192.85 194.64 192.37 195.152C191.89 195.632 191.362 196.256 190.786 197.024C190.21 197.76 189.618 198.512 189.01 199.28L188.578 198.992C189.218 198.256 189.842 197.488 190.45 196.688C191.058 195.888 191.682 195.2 192.322 194.624C192.962 194.048 193.634 193.76 194.338 193.76C194.69 193.76 195.01 193.856 195.298 194.048C195.618 194.208 195.778 194.48 195.778 194.864C195.778 195.216 195.634 195.648 195.346 196.16C195.09 196.64 194.738 197.2 194.29 197.84C193.842 198.448 193.33 199.136 192.754 199.904C192.21 200.64 191.634 201.44 191.026 202.304L191.074 202.592C192.77 200.736 194.194 199.232 195.346 198.08C196.53 196.928 197.506 196.048 198.274 195.44C199.074 194.8 199.762 194.368 200.338 194.144C200.946 193.888 201.522 193.76 202.066 193.76C202.802 193.76 203.33 193.92 203.65 194.24C203.97 194.528 204.13 194.928 204.13 195.44C204.13 196.208 203.906 197.024 203.458 197.888C203.01 198.72 202.45 199.552 201.778 200.384C201.138 201.184 200.482 201.936 199.81 202.64C199.17 203.312 198.626 203.888 198.178 204.368C197.73 204.848 197.506 205.168 197.506 205.328C197.506 205.52 197.554 205.664 197.65 205.76C197.778 205.856 198.082 205.904 198.562 205.904C199.746 205.904 200.866 205.536 201.922 204.8C203.01 204.064 204.05 203.168 205.042 202.112C206.034 201.024 206.962 199.952 207.826 198.896L208.21 199.232C207.346 200.256 206.402 201.328 205.378 202.448C204.354 203.568 203.282 204.512 202.162 205.28C201.042 206.048 199.89 206.432 198.706 206.432ZM206.214 207.104C205.094 207.104 204.246 206.896 203.67 206.48C203.094 206.064 202.806 205.504 202.806 204.8C202.806 204.288 202.982 203.84 203.334 203.456C203.654 203.04 204.038 202.72 204.486 202.496C204.934 202.24 205.286 202.112 205.542 202.112C205.894 202.112 206.134 202.192 206.262 202.352C206.358 202.48 206.406 202.624 206.406 202.784C206.406 203.04 206.262 203.248 205.974 203.408C205.654 203.568 205.398 203.648 205.206 203.648C204.982 203.648 204.79 203.584 204.63 203.456C204.438 203.296 204.342 203.216 204.342 203.216C204.182 203.248 203.958 203.424 203.67 203.744C203.382 204.064 203.238 204.416 203.238 204.8C203.238 205.184 203.446 205.552 203.862 205.904C204.278 206.256 204.95 206.432 205.878 206.432C206.838 206.432 207.75 206.112 208.614 205.472C209.51 204.832 210.246 204.016 210.822 203.024C211.398 202.032 211.686 201.024 211.686 200C211.686 199.648 211.686 199.184 211.686 198.608C211.686 198 211.686 197.504 211.686 197.12C211.686 196.64 211.766 196.096 211.926 195.488C212.086 194.848 212.262 194.256 212.454 193.712C212.678 193.168 212.854 192.832 212.982 192.704C213.238 192.48 213.43 192.416 213.558 192.512C213.686 192.608 213.718 192.704 213.654 192.8C213.622 192.832 213.414 193.088 213.03 193.568C212.646 194.016 212.166 194.576 211.59 195.248C211.014 195.92 210.438 196.592 209.862 197.264C209.286 197.936 208.774 198.528 208.326 199.04C207.91 199.552 207.67 199.856 207.606 199.952C207.446 200.176 207.302 200.224 207.174 200.096C207.046 199.968 207.078 199.808 207.27 199.616C207.622 199.168 208.054 198.64 208.566 198.032C209.11 197.392 209.654 196.768 210.198 196.16C210.742 195.552 211.206 195.04 211.59 194.624C212.006 194.176 212.23 193.92 212.262 193.856C212.358 193.728 212.438 193.504 212.502 193.184C212.598 192.864 212.71 192.56 212.838 192.272C212.998 191.984 213.19 191.84 213.414 191.84C213.958 191.84 214.23 192.032 214.23 192.416C214.23 192.704 214.006 193.056 213.558 193.472C213.142 193.888 212.902 194.224 212.838 194.48C212.742 194.864 212.742 195.408 212.838 196.112C212.966 196.784 213.094 197.552 213.222 198.416C213.382 199.28 213.462 200.192 213.462 201.152C213.462 202.432 213.206 203.472 212.694 204.272C212.182 205.04 211.542 205.632 210.774 206.048C210.006 206.464 209.206 206.736 208.374 206.864C207.574 207.024 206.854 207.104 206.214 207.104ZM213.606 203.792C212.774 203.792 212.23 203.632 211.974 203.312C211.75 202.992 211.67 202.624 211.734 202.208C211.83 201.76 211.942 201.36 212.07 201.008L212.55 201.056C212.454 201.376 212.358 201.712 212.262 202.064C212.198 202.416 212.246 202.72 212.406 202.976C212.566 203.232 212.982 203.36 213.654 203.36C214.134 203.36 214.678 203.136 215.286 202.688C215.894 202.24 216.486 201.696 217.062 201.056C217.67 200.416 218.182 199.792 218.598 199.184L219.03 199.52C218.614 200.032 218.102 200.624 217.494 201.296C216.918 201.968 216.294 202.56 215.622 203.072C214.95 203.552 214.278 203.792 213.606 203.792ZM226.45 188.384C226.834 188.448 227.298 188.48 227.842 188.48C228.418 188.48 228.898 188.432 229.282 188.336C229.09 188.592 228.786 188.976 228.37 189.488C227.986 189.968 227.522 190.544 226.978 191.216C226.434 191.856 225.858 192.544 225.25 193.28C224.674 194.016 224.066 194.784 223.426 195.584C222.818 196.352 222.226 197.104 221.65 197.84C221.074 198.544 220.546 199.216 220.066 199.856C219.618 200.496 219.234 201.04 218.914 201.488L219.058 201.632C219.858 200.928 220.61 200.24 221.314 199.568C222.05 198.896 222.754 198.272 223.426 197.696C224.098 197.12 224.754 196.592 225.394 196.112C226.034 195.632 226.658 195.216 227.266 194.864C227.874 194.512 228.45 194.24 228.994 194.048C229.57 193.856 230.13 193.76 230.674 193.76C231.506 193.76 232.034 193.904 232.258 194.192C232.482 194.48 232.594 194.848 232.594 195.296C232.594 196.192 232.306 197.056 231.73 197.888C231.154 198.688 230.45 199.456 229.618 200.192C228.786 200.928 227.938 201.6 227.074 202.208C226.242 202.816 225.538 203.376 224.962 203.888C224.386 204.368 224.098 204.768 224.098 205.088C224.098 205.408 224.21 205.632 224.434 205.76C224.658 205.888 224.93 205.952 225.25 205.952C226.242 205.952 227.282 205.584 228.37 204.848C229.458 204.112 230.53 203.216 231.586 202.16C232.642 201.072 233.602 200 234.466 198.944L234.898 199.232C234.002 200.256 233.01 201.328 231.922 202.448C230.866 203.568 229.762 204.512 228.61 205.28C227.49 206.048 226.386 206.432 225.298 206.432C224.402 206.432 223.81 206.24 223.522 205.856C223.266 205.44 223.138 205.056 223.138 204.704C223.138 203.808 223.426 202.96 224.002 202.16C224.578 201.36 225.282 200.608 226.114 199.904C226.946 199.2 227.778 198.544 228.61 197.936C229.442 197.328 230.146 196.768 230.722 196.256C231.298 195.744 231.586 195.28 231.586 194.864C231.586 194.672 231.522 194.528 231.394 194.432C231.266 194.304 231.026 194.24 230.674 194.24C229.906 194.24 229.026 194.512 228.034 195.056C227.042 195.568 226.002 196.24 224.914 197.072C223.858 197.904 222.802 198.8 221.746 199.76C220.722 200.72 219.762 201.664 218.866 202.592C218.002 203.52 217.282 204.32 216.706 204.992C216.098 205.664 215.682 206.112 215.458 206.336C215.298 206.528 214.978 206.96 214.498 207.632C214.018 208.304 213.474 209.104 212.866 210.032C212.226 210.992 211.57 211.984 210.898 213.008C210.226 214.032 209.602 214.992 209.026 215.888C208.418 216.816 207.938 217.584 207.586 218.192C207.202 218.8 206.978 219.168 206.914 219.296C206.786 219.392 206.498 219.456 206.05 219.488C205.602 219.52 205.17 219.52 204.754 219.488C204.306 219.456 204.002 219.392 203.842 219.296C203.874 219.232 204.21 218.768 204.85 217.904C205.49 217.072 206.322 215.936 207.346 214.496C208.37 213.088 209.538 211.488 210.85 209.696C212.13 207.936 213.458 206.112 214.834 204.224C216.21 202.336 217.554 200.496 218.866 198.704C220.178 196.88 221.378 195.232 222.466 193.76C223.586 192.256 224.498 191.04 225.202 190.112C225.906 189.152 226.322 188.576 226.45 188.384ZM233.509 206.432C233.061 206.432 232.565 206.304 232.021 206.048C231.445 205.824 231.157 205.44 231.157 204.896C231.157 204.224 231.461 203.376 232.069 202.352C232.677 201.328 233.429 200.272 234.325 199.184C235.189 198.096 236.037 197.072 236.869 196.112C237.701 195.152 238.325 194.4 238.741 193.856C239.093 193.888 239.509 193.904 239.989 193.904C240.501 193.904 240.949 193.888 241.333 193.856C240.885 194.4 240.293 195.088 239.557 195.92C238.853 196.752 238.101 197.648 237.301 198.608C236.533 199.536 235.781 200.448 235.045 201.344C234.341 202.24 233.765 203.04 233.317 203.744C232.869 204.448 232.645 204.96 232.645 205.28C232.645 205.504 232.741 205.664 232.933 205.76C233.125 205.856 233.445 205.904 233.893 205.904C234.661 205.904 235.509 205.616 236.437 205.04C237.397 204.432 238.325 203.712 239.221 202.88C240.117 202.048 240.917 201.264 241.621 200.528C242.325 199.76 242.821 199.2 243.109 198.848L243.493 199.184C243.205 199.504 242.709 200.064 242.005 200.864C241.333 201.632 240.517 202.448 239.557 203.312C238.629 204.176 237.637 204.912 236.581 205.52C235.557 206.128 234.533 206.432 233.509 206.432ZM243.109 190.208C242.725 190.208 242.437 190.096 242.245 189.872C242.053 189.616 241.957 189.328 241.957 189.008C241.957 188.656 242.149 188.288 242.533 187.904C242.917 187.52 243.317 187.328 243.733 187.328C244.181 187.328 244.501 187.456 244.693 187.712C244.885 187.936 244.981 188.16 244.981 188.384C244.981 188.864 244.789 189.296 244.405 189.68C244.021 190.032 243.589 190.208 243.109 190.208ZM243.047 199.712C242.919 199.84 242.823 199.856 242.759 199.76C242.695 199.632 242.679 199.504 242.711 199.376C243.255 198.832 243.783 198.192 244.295 197.456C244.839 196.72 245.287 196.032 245.639 195.392C246.023 194.752 246.247 194.32 246.311 194.096C246.375 194.096 246.471 194.048 246.599 193.952C246.759 193.856 246.903 193.824 247.031 193.856C246.999 194.08 246.951 194.288 246.887 194.48C246.855 194.672 246.967 194.848 247.223 195.008C247.479 195.168 248.007 195.328 248.807 195.488C249.607 195.648 250.823 195.824 252.455 196.016C252.615 196.048 252.727 196.112 252.791 196.208C252.887 196.272 252.839 196.384 252.647 196.544C252.039 197.024 251.367 197.632 250.631 198.368C249.895 199.104 249.175 199.888 248.471 200.72C247.799 201.52 247.239 202.304 246.791 203.072C246.375 203.84 246.167 204.48 246.167 204.992C246.167 205.568 246.423 205.856 246.935 205.856C247.575 205.856 248.295 205.6 249.095 205.088C249.927 204.576 250.759 203.952 251.591 203.216C252.423 202.448 253.191 201.68 253.895 200.912C254.631 200.112 255.239 199.456 255.719 198.944L256.103 199.232C255.655 199.68 255.079 200.304 254.375 201.104C253.671 201.904 252.871 202.72 251.975 203.552C251.111 204.352 250.183 205.04 249.191 205.616C248.199 206.16 247.175 206.432 246.119 206.432C245.511 206.432 244.967 206.288 244.487 206C244.007 205.744 243.767 205.264 243.767 204.56C243.767 203.888 244.055 203.184 244.631 202.448C245.207 201.712 245.927 200.976 246.791 200.24C247.655 199.472 248.551 198.752 249.479 198.08C250.439 197.376 251.287 196.736 252.023 196.16L252.359 196.592C252.039 196.464 251.479 196.352 250.679 196.256C249.879 196.128 249.047 195.968 248.183 195.776C247.319 195.552 246.567 195.264 245.927 194.912C245.319 194.56 245.015 194.08 245.015 193.472C245.015 193.152 245.143 192.768 245.399 192.32C245.687 191.84 246.071 191.6 246.551 191.6C246.999 191.6 247.303 191.696 247.463 191.888C247.623 192.048 247.703 192.272 247.703 192.56C247.703 192.752 247.543 193.152 247.223 193.76C246.903 194.336 246.503 195.024 246.023 195.824C245.543 196.592 245.031 197.328 244.487 198.032C243.975 198.736 243.495 199.296 243.047 199.712ZM266.12 197.6C265.992 197.856 265.8 198.08 265.544 198.272C265.32 198.464 265.144 198.592 265.016 198.656C264.92 198.688 264.952 198.592 265.112 198.368C265.688 197.664 266.056 197.008 266.216 196.4C266.408 195.792 266.408 195.312 266.216 194.96C266.056 194.576 265.736 194.384 265.256 194.384C264.616 194.384 263.864 194.64 263 195.152C262.136 195.664 261.24 196.336 260.312 197.168C259.416 198 258.568 198.896 257.768 199.856C257 200.784 256.376 201.696 255.896 202.592C255.416 203.456 255.176 204.208 255.176 204.848C255.176 205.328 255.272 205.632 255.464 205.76C255.656 205.888 255.848 205.952 256.04 205.952C256.776 205.952 257.624 205.616 258.584 204.944C259.576 204.24 260.584 203.36 261.608 202.304C262.632 201.248 263.608 200.176 264.536 199.088C265.464 197.968 266.264 196.96 266.936 196.064C267.64 195.168 268.12 194.56 268.376 194.24C268.728 194.368 269.144 194.416 269.624 194.384C270.136 194.352 270.568 194.32 270.92 194.288C270.856 194.384 270.52 194.784 269.912 195.488C269.336 196.192 268.632 197.04 267.8 198.032C267 198.992 266.184 199.984 265.352 201.008C264.552 202.032 263.88 202.928 263.336 203.696C262.792 204.464 262.52 204.976 262.52 205.232C262.52 205.552 262.584 205.76 262.712 205.856C262.872 205.92 263.112 205.952 263.432 205.952C263.816 205.92 264.376 205.744 265.112 205.424C265.848 205.072 266.792 204.4 267.944 203.408C269.096 202.416 270.488 200.944 272.12 198.992C272.12 198.992 272.184 199.04 272.312 199.136C272.472 199.232 272.552 199.28 272.552 199.28C270.632 201.52 268.856 203.28 267.224 204.56C265.592 205.808 264.104 206.432 262.76 206.432C262.056 206.432 261.576 206.32 261.32 206.096C261.096 205.872 260.984 205.552 260.984 205.136C260.984 204.816 261.112 204.432 261.368 203.984C261.656 203.504 261.976 203.04 262.328 202.592C262.68 202.144 262.968 201.792 263.192 201.536C263.192 201.536 263.16 201.52 263.096 201.488C263.032 201.456 263 201.44 263 201.44C262.264 202.336 261.48 203.168 260.648 203.936C259.816 204.704 258.984 205.312 258.152 205.76C257.352 206.208 256.568 206.432 255.8 206.432C255 206.432 254.44 206.24 254.12 205.856C253.8 205.44 253.64 204.816 253.64 203.984C253.64 203.184 253.896 202.224 254.408 201.104C254.92 199.952 255.656 198.832 256.616 197.744C257.576 196.624 258.728 195.696 260.072 194.96C261.448 194.224 262.984 193.856 264.68 193.856C265.512 193.856 266.088 194.016 266.408 194.336C266.728 194.624 266.872 194.976 266.84 195.392C266.808 195.808 266.712 196.224 266.552 196.64C266.392 197.056 266.248 197.376 266.12 197.6ZM281.757 185.264C282.045 185.392 282.461 185.456 283.005 185.456C283.581 185.424 284.029 185.376 284.349 185.312C283.325 186.72 282.189 188.272 280.941 189.968C279.693 191.664 278.429 193.36 277.149 195.056C275.901 196.72 274.733 198.288 273.645 199.76C272.589 201.2 271.741 202.416 271.101 203.408C270.461 204.4 270.141 205.024 270.141 205.28C270.141 205.472 270.253 205.616 270.477 205.712C270.669 205.808 270.925 205.856 271.245 205.856C271.949 205.856 272.717 205.616 273.549 205.136C274.413 204.624 275.261 204 276.093 203.264C276.957 202.496 277.741 201.728 278.445 200.96C279.181 200.16 279.757 199.472 280.173 198.896L280.557 199.184C280.109 199.76 279.517 200.448 278.781 201.248C278.045 202.048 277.229 202.848 276.333 203.648C275.437 204.448 274.509 205.12 273.549 205.664C272.621 206.176 271.725 206.432 270.861 206.432C270.253 206.432 269.773 206.304 269.421 206.048C269.037 205.824 268.845 205.424 268.845 204.848C268.845 204.336 269.149 203.552 269.757 202.496C270.365 201.408 271.149 200.16 272.109 198.752C273.101 197.344 274.173 195.856 275.325 194.288C276.477 192.688 277.613 191.12 278.733 189.584C279.885 188.016 280.893 186.576 281.757 185.264ZM276.477 190.64C276.157 190.64 275.997 190.544 275.997 190.352C275.997 190.192 276.157 190.112 276.477 190.112H285.597C285.693 190.112 285.789 190.128 285.885 190.16C286.013 190.192 286.077 190.256 286.077 190.352C286.077 190.48 286.013 190.56 285.885 190.592C285.789 190.624 285.693 190.64 285.597 190.64H276.477ZM279.118 206.432C278.67 206.432 278.174 206.304 277.63 206.048C277.054 205.824 276.766 205.44 276.766 204.896C276.766 204.224 277.07 203.376 277.678 202.352C278.286 201.328 279.038 200.272 279.934 199.184C280.798 198.096 281.646 197.072 282.478 196.112C283.31 195.152 283.934 194.4 284.35 193.856C284.702 193.888 285.118 193.904 285.598 193.904C286.11 193.904 286.558 193.888 286.942 193.856C286.494 194.4 285.902 195.088 285.166 195.92C284.462 196.752 283.71 197.648 282.91 198.608C282.142 199.536 281.39 200.448 280.654 201.344C279.95 202.24 279.374 203.04 278.926 203.744C278.478 204.448 278.254 204.96 278.254 205.28C278.254 205.504 278.35 205.664 278.542 205.76C278.734 205.856 279.054 205.904 279.502 205.904C280.27 205.904 281.118 205.616 282.046 205.04C283.006 204.432 283.934 203.712 284.83 202.88C285.726 202.048 286.526 201.264 287.23 200.528C287.934 199.76 288.43 199.2 288.718 198.848L289.102 199.184C288.814 199.504 288.318 200.064 287.614 200.864C286.942 201.632 286.126 202.448 285.166 203.312C284.238 204.176 283.246 204.912 282.19 205.52C281.166 206.128 280.142 206.432 279.118 206.432ZM288.718 190.208C288.334 190.208 288.046 190.096 287.854 189.872C287.662 189.616 287.566 189.328 287.566 189.008C287.566 188.656 287.758 188.288 288.142 187.904C288.526 187.52 288.926 187.328 289.342 187.328C289.79 187.328 290.11 187.456 290.302 187.712C290.494 187.936 290.59 188.16 290.59 188.384C290.59 188.864 290.398 189.296 290.014 189.68C289.63 190.032 289.198 190.208 288.718 190.208ZM296.96 193.76C298.56 193.76 299.36 194.528 299.36 196.064C299.36 197.248 299.088 198.464 298.544 199.712C298 200.928 297.264 202.048 296.336 203.072C295.408 204.064 294.4 204.88 293.312 205.52C292.224 206.128 291.12 206.432 290 206.432C289.136 206.432 288.416 206.224 287.84 205.808C287.232 205.36 286.928 204.64 286.928 203.648C286.928 202.72 287.2 201.696 287.744 200.576C288.288 199.424 289.024 198.336 289.952 197.312C290.912 196.288 291.984 195.44 293.168 194.768C294.384 194.096 295.648 193.76 296.96 193.76ZM297.488 194.432C296.944 194.432 296.304 194.672 295.568 195.152C294.832 195.632 294.08 196.256 293.312 197.024C292.544 197.792 291.824 198.624 291.152 199.52C290.512 200.384 289.984 201.232 289.568 202.064C289.184 202.896 288.992 203.6 288.992 204.176C288.992 204.816 289.168 205.264 289.52 205.52C289.872 205.744 290.272 205.856 290.72 205.856C291.456 205.856 292.288 205.552 293.216 204.944C294.144 204.304 295.04 203.504 295.904 202.544C296.768 201.584 297.472 200.576 298.016 199.52C298.592 198.432 298.88 197.44 298.88 196.544C298.88 195.712 298.736 195.152 298.448 194.864C298.16 194.576 297.84 194.432 297.488 194.432ZM298.352 199.376C298.512 199.376 298.576 199.44 298.544 199.568C298.544 199.664 298.464 199.712 298.304 199.712C298.176 199.712 297.984 199.888 297.728 200.24C297.504 200.56 297.296 200.896 297.104 201.248C296.912 201.6 296.816 201.792 296.816 201.824C296.816 202.56 297.088 202.928 297.632 202.928C298.144 202.928 298.72 202.688 299.36 202.208C300.032 201.728 300.672 201.184 301.28 200.576C301.92 199.936 302.432 199.376 302.816 198.896L303.2 199.232C302.784 199.712 302.256 200.288 301.616 200.96C300.976 201.6 300.304 202.176 299.6 202.688C298.896 203.168 298.24 203.408 297.632 203.408C297.12 203.408 296.768 203.296 296.576 203.072C296.384 202.848 296.288 202.448 296.288 201.872C296.288 201.104 296.544 200.496 297.056 200.048C297.6 199.6 298.032 199.376 298.352 199.376ZM312.894 206.432C311.198 206.432 310.35 205.936 310.35 204.944C310.35 204.304 310.558 203.616 310.974 202.88C311.422 202.144 311.966 201.408 312.606 200.672C313.246 199.904 313.886 199.152 314.526 198.416C315.198 197.68 315.742 197.008 316.158 196.4C316.606 195.76 316.83 195.216 316.83 194.768C316.83 194.608 316.75 194.48 316.59 194.384C316.462 194.256 316.27 194.192 316.014 194.192C315.63 194.192 315.086 194.384 314.382 194.768C313.71 195.152 312.846 195.808 311.79 196.736C310.766 197.632 309.55 198.848 308.142 200.384C306.734 201.888 305.118 203.776 303.294 206.048C303.006 205.984 302.574 205.952 301.998 205.952C301.422 205.952 300.926 206.016 300.51 206.144C301.438 204.8 302.35 203.488 303.246 202.208C304.142 200.928 304.958 199.76 305.694 198.704C306.462 197.648 307.07 196.784 307.518 196.112C307.966 195.408 308.19 194.976 308.19 194.816C308.19 194.528 308.046 194.384 307.758 194.384C307.438 194.384 307.038 194.64 306.558 195.152C306.078 195.632 305.55 196.256 304.974 197.024C304.398 197.76 303.806 198.512 303.198 199.28L302.766 198.992C303.406 198.256 304.03 197.488 304.638 196.688C305.246 195.888 305.87 195.2 306.51 194.624C307.15 194.048 307.822 193.76 308.526 193.76C308.878 193.76 309.198 193.856 309.486 194.048C309.806 194.208 309.966 194.48 309.966 194.864C309.966 195.216 309.822 195.648 309.534 196.16C309.278 196.64 308.926 197.2 308.478 197.84C308.03 198.448 307.518 199.136 306.942 199.904C306.398 200.64 305.822 201.44 305.214 202.304L305.262 202.592C306.958 200.736 308.382 199.232 309.534 198.08C310.718 196.928 311.694 196.048 312.462 195.44C313.262 194.8 313.95 194.368 314.526 194.144C315.134 193.888 315.71 193.76 316.254 193.76C316.99 193.76 317.518 193.92 317.838 194.24C318.158 194.528 318.318 194.928 318.318 195.44C318.318 196.208 318.094 197.024 317.646 197.888C317.198 198.72 316.638 199.552 315.966 200.384C315.326 201.184 314.67 201.936 313.998 202.64C313.358 203.312 312.814 203.888 312.366 204.368C311.918 204.848 311.694 205.168 311.694 205.328C311.694 205.52 311.742 205.664 311.838 205.76C311.966 205.856 312.27 205.904 312.75 205.904C313.934 205.904 315.054 205.536 316.11 204.8C317.198 204.064 318.238 203.168 319.23 202.112C320.222 201.024 321.15 199.952 322.014 198.896L322.398 199.232C321.534 200.256 320.59 201.328 319.566 202.448C318.542 203.568 317.47 204.512 316.35 205.28C315.23 206.048 314.078 206.432 312.894 206.432Z" fill="#EA2121"/>
</g>
<defs>
<clipPath id="clip0_1_14">
<rect width="395" height="350" fill="white"/>
</clipPath>
</defs>
</svg>
