<svg width="298" height="101" viewBox="0 0 298 101" fill="none" xmlns="http://www.w3.org/2000/svg">
<g clip-path="url(#clip0_1_2)">
<path d="M105.04 89.432C104.592 89.432 104.096 89.304 103.552 89.048C102.976 88.824 102.688 88.44 102.688 87.896C102.688 87.224 102.992 86.376 103.6 85.352C104.208 84.328 104.96 83.272 105.856 82.184C106.72 81.096 107.568 80.072 108.4 79.112C109.232 78.152 109.856 77.4 110.272 76.856C110.624 76.888 111.04 76.904 111.52 76.904C112.032 76.904 112.48 76.888 112.864 76.856C112.416 77.4 111.824 78.088 111.088 78.92C110.384 79.752 109.632 80.648 108.832 81.608C108.064 82.536 107.312 83.448 106.576 84.344C105.872 85.24 105.296 86.04 104.848 86.744C104.4 87.448 104.176 87.96 104.176 88.28C104.176 88.504 104.272 88.664 104.464 88.76C104.656 88.856 104.976 88.904 105.424 88.904C106.192 88.904 107.04 88.616 107.968 88.04C108.928 87.432 109.856 86.712 110.752 85.88C111.648 85.048 112.448 84.264 113.152 83.528C113.856 82.76 114.352 82.2 114.64 81.848L115.024 82.184C114.736 82.504 114.24 83.064 113.536 83.864C112.864 84.632 112.048 85.448 111.088 86.312C110.16 87.176 109.168 87.912 108.112 88.52C107.088 89.128 106.064 89.432 105.04 89.432ZM114.64 73.208C114.256 73.208 113.968 73.096 113.776 72.872C113.584 72.616 113.488 72.328 113.488 72.008C113.488 71.656 113.68 71.288 114.064 70.904C114.448 70.52 114.848 70.328 115.264 70.328C115.712 70.328 116.032 70.456 116.224 70.712C116.416 70.936 116.512 71.16 116.512 71.384C116.512 71.864 116.32 72.296 115.936 72.68C115.552 73.032 115.12 73.208 114.64 73.208ZM124.706 89.432C123.01 89.432 122.162 88.936 122.162 87.944C122.162 87.304 122.37 86.616 122.786 85.88C123.234 85.144 123.778 84.408 124.418 83.672C125.058 82.904 125.698 82.152 126.338 81.416C127.01 80.68 127.554 80.008 127.97 79.4C128.418 78.76 128.642 78.216 128.642 77.768C128.642 77.608 128.562 77.48 128.402 77.384C128.274 77.256 128.082 77.192 127.826 77.192C127.442 77.192 126.898 77.384 126.194 77.768C125.522 78.152 124.658 78.808 123.602 79.736C122.578 80.632 121.362 81.848 119.954 83.384C118.546 84.888 116.93 86.776 115.106 89.048C114.818 88.984 114.386 88.952 113.81 88.952C113.234 88.952 112.738 89.016 112.322 89.144C113.25 87.8 114.162 86.488 115.058 85.208C115.954 83.928 116.77 82.76 117.506 81.704C118.274 80.648 118.882 79.784 119.33 79.112C119.778 78.408 120.002 77.976 120.002 77.816C120.002 77.528 119.858 77.384 119.57 77.384C119.25 77.384 118.85 77.64 118.37 78.152C117.89 78.632 117.362 79.256 116.786 80.024C116.21 80.76 115.618 81.512 115.01 82.28L114.578 81.992C115.218 81.256 115.842 80.488 116.45 79.688C117.058 78.888 117.682 78.2 118.322 77.624C118.962 77.048 119.634 76.76 120.338 76.76C120.69 76.76 121.01 76.856 121.298 77.048C121.618 77.208 121.778 77.48 121.778 77.864C121.778 78.216 121.634 78.648 121.346 79.16C121.09 79.64 120.738 80.2 120.29 80.84C119.842 81.448 119.33 82.136 118.754 82.904C118.21 83.64 117.634 84.44 117.026 85.304L117.074 85.592C118.77 83.736 120.194 82.232 121.346 81.08C122.53 79.928 123.506 79.048 124.274 78.44C125.074 77.8 125.762 77.368 126.338 77.144C126.946 76.888 127.522 76.76 128.066 76.76C128.802 76.76 129.33 76.92 129.65 77.24C129.97 77.528 130.13 77.928 130.13 78.44C130.13 79.208 129.906 80.024 129.458 80.888C129.01 81.72 128.45 82.552 127.778 83.384C127.138 84.184 126.482 84.936 125.81 85.64C125.17 86.312 124.626 86.888 124.178 87.368C123.73 87.848 123.506 88.168 123.506 88.328C123.506 88.52 123.554 88.664 123.65 88.76C123.778 88.856 124.082 88.904 124.562 88.904C125.746 88.904 126.866 88.536 127.922 87.8C129.01 87.064 130.05 86.168 131.042 85.112C132.034 84.024 132.962 82.952 133.826 81.896L134.21 82.232C133.346 83.256 132.402 84.328 131.378 85.448C130.354 86.568 129.282 87.512 128.162 88.28C127.042 89.048 125.89 89.432 124.706 89.432ZM132.214 90.104C131.094 90.104 130.246 89.896 129.67 89.48C129.094 89.064 128.806 88.504 128.806 87.8C128.806 87.288 128.982 86.84 129.334 86.456C129.654 86.04 130.038 85.72 130.486 85.496C130.934 85.24 131.286 85.112 131.542 85.112C131.894 85.112 132.134 85.192 132.262 85.352C132.358 85.48 132.406 85.624 132.406 85.784C132.406 86.04 132.262 86.248 131.974 86.408C131.654 86.568 131.398 86.648 131.206 86.648C130.982 86.648 130.79 86.584 130.63 86.456C130.438 86.296 130.342 86.216 130.342 86.216C130.182 86.248 129.958 86.424 129.67 86.744C129.382 87.064 129.238 87.416 129.238 87.8C129.238 88.184 129.446 88.552 129.862 88.904C130.278 89.256 130.95 89.432 131.878 89.432C132.838 89.432 133.75 89.112 134.614 88.472C135.51 87.832 136.246 87.016 136.822 86.024C137.398 85.032 137.686 84.024 137.686 83C137.686 82.648 137.686 82.184 137.686 81.608C137.686 81 137.686 80.504 137.686 80.12C137.686 79.64 137.766 79.096 137.926 78.488C138.086 77.848 138.262 77.256 138.454 76.712C138.678 76.168 138.854 75.832 138.982 75.704C139.238 75.48 139.43 75.416 139.558 75.512C139.686 75.608 139.718 75.704 139.654 75.8C139.622 75.832 139.414 76.088 139.03 76.568C138.646 77.016 138.166 77.576 137.59 78.248C137.014 78.92 136.438 79.592 135.862 80.264C135.286 80.936 134.774 81.528 134.326 82.04C133.91 82.552 133.67 82.856 133.606 82.952C133.446 83.176 133.302 83.224 133.174 83.096C133.046 82.968 133.078 82.808 133.27 82.616C133.622 82.168 134.054 81.64 134.566 81.032C135.11 80.392 135.654 79.768 136.198 79.16C136.742 78.552 137.206 78.04 137.59 77.624C138.006 77.176 138.23 76.92 138.262 76.856C138.358 76.728 138.438 76.504 138.502 76.184C138.598 75.864 138.71 75.56 138.838 75.272C138.998 74.984 139.19 74.84 139.414 74.84C139.958 74.84 140.23 75.032 140.23 75.416C140.23 75.704 140.006 76.056 139.558 76.472C139.142 76.888 138.902 77.224 138.838 77.48C138.742 77.864 138.742 78.408 138.838 79.112C138.966 79.784 139.094 80.552 139.222 81.416C139.382 82.28 139.462 83.192 139.462 84.152C139.462 85.432 139.206 86.472 138.694 87.272C138.182 88.04 137.542 88.632 136.774 89.048C136.006 89.464 135.206 89.736 134.374 89.864C133.574 90.024 132.854 90.104 132.214 90.104ZM139.606 86.792C138.774 86.792 138.23 86.632 137.974 86.312C137.75 85.992 137.67 85.624 137.734 85.208C137.83 84.76 137.942 84.36 138.07 84.008L138.55 84.056C138.454 84.376 138.358 84.712 138.262 85.064C138.198 85.416 138.246 85.72 138.406 85.976C138.566 86.232 138.982 86.36 139.654 86.36C140.134 86.36 140.678 86.136 141.286 85.688C141.894 85.24 142.486 84.696 143.062 84.056C143.67 83.416 144.182 82.792 144.598 82.184L145.03 82.52C144.614 83.032 144.102 83.624 143.494 84.296C142.918 84.968 142.294 85.56 141.622 86.072C140.95 86.552 140.278 86.792 139.606 86.792ZM152.45 71.384C152.834 71.448 153.298 71.48 153.842 71.48C154.418 71.48 154.898 71.432 155.282 71.336C155.09 71.592 154.786 71.976 154.37 72.488C153.986 72.968 153.522 73.544 152.978 74.216C152.434 74.856 151.858 75.544 151.25 76.28C150.674 77.016 150.066 77.784 149.426 78.584C148.818 79.352 148.226 80.104 147.65 80.84C147.074 81.544 146.546 82.216 146.066 82.856C145.618 83.496 145.234 84.04 144.914 84.488L145.058 84.632C145.858 83.928 146.61 83.24 147.314 82.568C148.05 81.896 148.754 81.272 149.426 80.696C150.098 80.12 150.754 79.592 151.394 79.112C152.034 78.632 152.658 78.216 153.266 77.864C153.874 77.512 154.45 77.24 154.994 77.048C155.57 76.856 156.13 76.76 156.674 76.76C157.506 76.76 158.034 76.904 158.258 77.192C158.482 77.48 158.594 77.848 158.594 78.296C158.594 79.192 158.306 80.056 157.73 80.888C157.154 81.688 156.45 82.456 155.618 83.192C154.786 83.928 153.938 84.6 153.074 85.208C152.242 85.816 151.538 86.376 150.962 86.888C150.386 87.368 150.098 87.768 150.098 88.088C150.098 88.408 150.21 88.632 150.434 88.76C150.658 88.888 150.93 88.952 151.25 88.952C152.242 88.952 153.282 88.584 154.37 87.848C155.458 87.112 156.53 86.216 157.586 85.16C158.642 84.072 159.602 83 160.466 81.944L160.898 82.232C160.002 83.256 159.01 84.328 157.922 85.448C156.866 86.568 155.762 87.512 154.61 88.28C153.49 89.048 152.386 89.432 151.298 89.432C150.402 89.432 149.81 89.24 149.522 88.856C149.266 88.44 149.138 88.056 149.138 87.704C149.138 86.808 149.426 85.96 150.002 85.16C150.578 84.36 151.282 83.608 152.114 82.904C152.946 82.2 153.778 81.544 154.61 80.936C155.442 80.328 156.146 79.768 156.722 79.256C157.298 78.744 157.586 78.28 157.586 77.864C157.586 77.672 157.522 77.528 157.394 77.432C157.266 77.304 157.026 77.24 156.674 77.24C155.906 77.24 155.026 77.512 154.034 78.056C153.042 78.568 152.002 79.24 150.914 80.072C149.858 80.904 148.802 81.8 147.746 82.76C146.722 83.72 145.762 84.664 144.866 85.592C144.002 86.52 143.282 87.32 142.706 87.992C142.098 88.664 141.682 89.112 141.458 89.336C141.298 89.528 140.978 89.96 140.498 90.632C140.018 91.304 139.474 92.104 138.866 93.032C138.226 93.992 137.57 94.984 136.898 96.008C136.226 97.032 135.602 97.992 135.026 98.888C134.418 99.816 133.938 100.584 133.586 101.192C133.202 101.8 132.978 102.168 132.914 102.296C132.786 102.392 132.498 102.456 132.05 102.488C131.602 102.52 131.17 102.52 130.754 102.488C130.306 102.456 130.002 102.392 129.842 102.296C129.874 102.232 130.21 101.768 130.85 100.904C131.49 100.072 132.322 98.936 133.346 97.496C134.37 96.088 135.538 94.488 136.85 92.696C138.13 90.936 139.458 89.112 140.834 87.224C142.21 85.336 143.554 83.496 144.866 81.704C146.178 79.88 147.378 78.232 148.466 76.76C149.586 75.256 150.498 74.04 151.202 73.112C151.906 72.152 152.322 71.576 152.45 71.384ZM159.509 89.432C159.061 89.432 158.565 89.304 158.021 89.048C157.445 88.824 157.157 88.44 157.157 87.896C157.157 87.224 157.461 86.376 158.069 85.352C158.677 84.328 159.429 83.272 160.325 82.184C161.189 81.096 162.037 80.072 162.869 79.112C163.701 78.152 164.325 77.4 164.741 76.856C165.093 76.888 165.509 76.904 165.989 76.904C166.501 76.904 166.949 76.888 167.333 76.856C166.885 77.4 166.293 78.088 165.557 78.92C164.853 79.752 164.101 80.648 163.301 81.608C162.533 82.536 161.781 83.448 161.045 84.344C160.341 85.24 159.765 86.04 159.317 86.744C158.869 87.448 158.645 87.96 158.645 88.28C158.645 88.504 158.741 88.664 158.933 88.76C159.125 88.856 159.445 88.904 159.893 88.904C160.661 88.904 161.509 88.616 162.437 88.04C163.397 87.432 164.325 86.712 165.221 85.88C166.117 85.048 166.917 84.264 167.621 83.528C168.325 82.76 168.821 82.2 169.109 81.848L169.493 82.184C169.205 82.504 168.709 83.064 168.005 83.864C167.333 84.632 166.517 85.448 165.557 86.312C164.629 87.176 163.637 87.912 162.581 88.52C161.557 89.128 160.533 89.432 159.509 89.432ZM169.109 73.208C168.725 73.208 168.437 73.096 168.245 72.872C168.053 72.616 167.957 72.328 167.957 72.008C167.957 71.656 168.149 71.288 168.533 70.904C168.917 70.52 169.317 70.328 169.733 70.328C170.181 70.328 170.501 70.456 170.693 70.712C170.885 70.936 170.981 71.16 170.981 71.384C170.981 71.864 170.789 72.296 170.405 72.68C170.021 73.032 169.589 73.208 169.109 73.208ZM169.047 82.712C168.919 82.84 168.823 82.856 168.759 82.76C168.695 82.632 168.679 82.504 168.711 82.376C169.255 81.832 169.783 81.192 170.295 80.456C170.839 79.72 171.287 79.032 171.639 78.392C172.023 77.752 172.247 77.32 172.311 77.096C172.375 77.096 172.471 77.048 172.599 76.952C172.759 76.856 172.903 76.824 173.031 76.856C172.999 77.08 172.951 77.288 172.887 77.48C172.855 77.672 172.967 77.848 173.223 78.008C173.479 78.168 174.007 78.328 174.807 78.488C175.607 78.648 176.823 78.824 178.455 79.016C178.615 79.048 178.727 79.112 178.791 79.208C178.887 79.272 178.839 79.384 178.647 79.544C178.039 80.024 177.367 80.632 176.631 81.368C175.895 82.104 175.175 82.888 174.471 83.72C173.799 84.52 173.239 85.304 172.791 86.072C172.375 86.84 172.167 87.48 172.167 87.992C172.167 88.568 172.423 88.856 172.935 88.856C173.575 88.856 174.295 88.6 175.095 88.088C175.927 87.576 176.759 86.952 177.591 86.216C178.423 85.448 179.191 84.68 179.895 83.912C180.631 83.112 181.239 82.456 181.719 81.944L182.103 82.232C181.655 82.68 181.079 83.304 180.375 84.104C179.671 84.904 178.871 85.72 177.975 86.552C177.111 87.352 176.183 88.04 175.191 88.616C174.199 89.16 173.175 89.432 172.119 89.432C171.511 89.432 170.967 89.288 170.487 89C170.007 88.744 169.767 88.264 169.767 87.56C169.767 86.888 170.055 86.184 170.631 85.448C171.207 84.712 171.927 83.976 172.791 83.24C173.655 82.472 174.551 81.752 175.479 81.08C176.439 80.376 177.287 79.736 178.023 79.16L178.359 79.592C178.039 79.464 177.479 79.352 176.679 79.256C175.879 79.128 175.047 78.968 174.183 78.776C173.319 78.552 172.567 78.264 171.927 77.912C171.319 77.56 171.015 77.08 171.015 76.472C171.015 76.152 171.143 75.768 171.399 75.32C171.687 74.84 172.071 74.6 172.551 74.6C172.999 74.6 173.303 74.696 173.463 74.888C173.623 75.048 173.703 75.272 173.703 75.56C173.703 75.752 173.543 76.152 173.223 76.76C172.903 77.336 172.503 78.024 172.023 78.824C171.543 79.592 171.031 80.328 170.487 81.032C169.975 81.736 169.495 82.296 169.047 82.712ZM192.12 80.6C191.992 80.856 191.8 81.08 191.544 81.272C191.32 81.464 191.144 81.592 191.016 81.656C190.92 81.688 190.952 81.592 191.112 81.368C191.688 80.664 192.056 80.008 192.216 79.4C192.408 78.792 192.408 78.312 192.216 77.96C192.056 77.576 191.736 77.384 191.256 77.384C190.616 77.384 189.864 77.64 189 78.152C188.136 78.664 187.24 79.336 186.312 80.168C185.416 81 184.568 81.896 183.768 82.856C183 83.784 182.376 84.696 181.896 85.592C181.416 86.456 181.176 87.208 181.176 87.848C181.176 88.328 181.272 88.632 181.464 88.76C181.656 88.888 181.848 88.952 182.04 88.952C182.776 88.952 183.624 88.616 184.584 87.944C185.576 87.24 186.584 86.36 187.608 85.304C188.632 84.248 189.608 83.176 190.536 82.088C191.464 80.968 192.264 79.96 192.936 79.064C193.64 78.168 194.12 77.56 194.376 77.24C194.728 77.368 195.144 77.416 195.624 77.384C196.136 77.352 196.568 77.32 196.92 77.288C196.856 77.384 196.52 77.784 195.912 78.488C195.336 79.192 194.632 80.04 193.8 81.032C193 81.992 192.184 82.984 191.352 84.008C190.552 85.032 189.88 85.928 189.336 86.696C188.792 87.464 188.52 87.976 188.52 88.232C188.52 88.552 188.584 88.76 188.712 88.856C188.872 88.92 189.112 88.952 189.432 88.952C189.816 88.92 190.376 88.744 191.112 88.424C191.848 88.072 192.792 87.4 193.944 86.408C195.096 85.416 196.488 83.944 198.12 81.992C198.12 81.992 198.184 82.04 198.312 82.136C198.472 82.232 198.552 82.28 198.552 82.28C196.632 84.52 194.856 86.28 193.224 87.56C191.592 88.808 190.104 89.432 188.76 89.432C188.056 89.432 187.576 89.32 187.32 89.096C187.096 88.872 186.984 88.552 186.984 88.136C186.984 87.816 187.112 87.432 187.368 86.984C187.656 86.504 187.976 86.04 188.328 85.592C188.68 85.144 188.968 84.792 189.192 84.536C189.192 84.536 189.16 84.52 189.096 84.488C189.032 84.456 189 84.44 189 84.44C188.264 85.336 187.48 86.168 186.648 86.936C185.816 87.704 184.984 88.312 184.152 88.76C183.352 89.208 182.568 89.432 181.8 89.432C181 89.432 180.44 89.24 180.12 88.856C179.8 88.44 179.64 87.816 179.64 86.984C179.64 86.184 179.896 85.224 180.408 84.104C180.92 82.952 181.656 81.832 182.616 80.744C183.576 79.624 184.728 78.696 186.072 77.96C187.448 77.224 188.984 76.856 190.68 76.856C191.512 76.856 192.088 77.016 192.408 77.336C192.728 77.624 192.872 77.976 192.84 78.392C192.808 78.808 192.712 79.224 192.552 79.64C192.392 80.056 192.248 80.376 192.12 80.6ZM207.757 68.264C208.045 68.392 208.461 68.456 209.005 68.456C209.581 68.424 210.029 68.376 210.349 68.312C209.325 69.72 208.189 71.272 206.941 72.968C205.693 74.664 204.429 76.36 203.149 78.056C201.901 79.72 200.733 81.288 199.645 82.76C198.589 84.2 197.741 85.416 197.101 86.408C196.461 87.4 196.141 88.024 196.141 88.28C196.141 88.472 196.253 88.616 196.477 88.712C196.669 88.808 196.925 88.856 197.245 88.856C197.949 88.856 198.717 88.616 199.549 88.136C200.413 87.624 201.261 87 202.093 86.264C202.957 85.496 203.741 84.728 204.445 83.96C205.181 83.16 205.757 82.472 206.173 81.896L206.557 82.184C206.109 82.76 205.517 83.448 204.781 84.248C204.045 85.048 203.229 85.848 202.333 86.648C201.437 87.448 200.509 88.12 199.549 88.664C198.621 89.176 197.725 89.432 196.861 89.432C196.253 89.432 195.773 89.304 195.421 89.048C195.037 88.824 194.845 88.424 194.845 87.848C194.845 87.336 195.149 86.552 195.757 85.496C196.365 84.408 197.149 83.16 198.109 81.752C199.101 80.344 200.173 78.856 201.325 77.288C202.477 75.688 203.613 74.12 204.733 72.584C205.885 71.016 206.893 69.576 207.757 68.264ZM202.477 73.64C202.157 73.64 201.997 73.544 201.997 73.352C201.997 73.192 202.157 73.112 202.477 73.112H211.597C211.693 73.112 211.789 73.128 211.885 73.16C212.013 73.192 212.077 73.256 212.077 73.352C212.077 73.48 212.013 73.56 211.885 73.592C211.789 73.624 211.693 73.64 211.597 73.64H202.477ZM205.118 89.432C204.67 89.432 204.174 89.304 203.63 89.048C203.054 88.824 202.766 88.44 202.766 87.896C202.766 87.224 203.07 86.376 203.678 85.352C204.286 84.328 205.038 83.272 205.934 82.184C206.798 81.096 207.646 80.072 208.478 79.112C209.31 78.152 209.934 77.4 210.35 76.856C210.702 76.888 211.118 76.904 211.598 76.904C212.11 76.904 212.558 76.888 212.942 76.856C212.494 77.4 211.902 78.088 211.166 78.92C210.462 79.752 209.71 80.648 208.91 81.608C208.142 82.536 207.39 83.448 206.654 84.344C205.95 85.24 205.374 86.04 204.926 86.744C204.478 87.448 204.254 87.96 204.254 88.28C204.254 88.504 204.35 88.664 204.542 88.76C204.734 88.856 205.054 88.904 205.502 88.904C206.27 88.904 207.118 88.616 208.046 88.04C209.006 87.432 209.934 86.712 210.83 85.88C211.726 85.048 212.526 84.264 213.23 83.528C213.934 82.76 214.43 82.2 214.718 81.848L215.102 82.184C214.814 82.504 214.318 83.064 213.614 83.864C212.942 84.632 212.126 85.448 211.166 86.312C210.238 87.176 209.246 87.912 208.19 88.52C207.166 89.128 206.142 89.432 205.118 89.432ZM214.718 73.208C214.334 73.208 214.046 73.096 213.854 72.872C213.662 72.616 213.566 72.328 213.566 72.008C213.566 71.656 213.758 71.288 214.142 70.904C214.526 70.52 214.926 70.328 215.342 70.328C215.79 70.328 216.11 70.456 216.302 70.712C216.494 70.936 216.59 71.16 216.59 71.384C216.59 71.864 216.398 72.296 216.014 72.68C215.63 73.032 215.198 73.208 214.718 73.208ZM222.96 76.76C224.56 76.76 225.36 77.528 225.36 79.064C225.36 80.248 225.088 81.464 224.544 82.712C224 83.928 223.264 85.048 222.336 86.072C221.408 87.064 220.4 87.88 219.312 88.52C218.224 89.128 217.12 89.432 216 89.432C215.136 89.432 214.416 89.224 213.84 88.808C213.232 88.36 212.928 87.64 212.928 86.648C212.928 85.72 213.2 84.696 213.744 83.576C214.288 82.424 215.024 81.336 215.952 80.312C216.912 79.288 217.984 78.44 219.168 77.768C220.384 77.096 221.648 76.76 222.96 76.76ZM223.488 77.432C222.944 77.432 222.304 77.672 221.568 78.152C220.832 78.632 220.08 79.256 219.312 80.024C218.544 80.792 217.824 81.624 217.152 82.52C216.512 83.384 215.984 84.232 215.568 85.064C215.184 85.896 214.992 86.6 214.992 87.176C214.992 87.816 215.168 88.264 215.52 88.52C215.872 88.744 216.272 88.856 216.72 88.856C217.456 88.856 218.288 88.552 219.216 87.944C220.144 87.304 221.04 86.504 221.904 85.544C222.768 84.584 223.472 83.576 224.016 82.52C224.592 81.432 224.88 80.44 224.88 79.544C224.88 78.712 224.736 78.152 224.448 77.864C224.16 77.576 223.84 77.432 223.488 77.432ZM224.352 82.376C224.512 82.376 224.576 82.44 224.544 82.568C224.544 82.664 224.464 82.712 224.304 82.712C224.176 82.712 223.984 82.888 223.728 83.24C223.504 83.56 223.296 83.896 223.104 84.248C222.912 84.6 222.816 84.792 222.816 84.824C222.816 85.56 223.088 85.928 223.632 85.928C224.144 85.928 224.72 85.688 225.36 85.208C226.032 84.728 226.672 84.184 227.28 83.576C227.92 82.936 228.432 82.376 228.816 81.896L229.2 82.232C228.784 82.712 228.256 83.288 227.616 83.96C226.976 84.6 226.304 85.176 225.6 85.688C224.896 86.168 224.24 86.408 223.632 86.408C223.12 86.408 222.768 86.296 222.576 86.072C222.384 85.848 222.288 85.448 222.288 84.872C222.288 84.104 222.544 83.496 223.056 83.048C223.6 82.6 224.032 82.376 224.352 82.376ZM238.894 89.432C237.198 89.432 236.35 88.936 236.35 87.944C236.35 87.304 236.558 86.616 236.974 85.88C237.422 85.144 237.966 84.408 238.606 83.672C239.246 82.904 239.886 82.152 240.526 81.416C241.198 80.68 241.742 80.008 242.158 79.4C242.606 78.76 242.83 78.216 242.83 77.768C242.83 77.608 242.75 77.48 242.59 77.384C242.462 77.256 242.27 77.192 242.014 77.192C241.63 77.192 241.086 77.384 240.382 77.768C239.71 78.152 238.846 78.808 237.79 79.736C236.766 80.632 235.55 81.848 234.142 83.384C232.734 84.888 231.118 86.776 229.294 89.048C229.006 88.984 228.574 88.952 227.998 88.952C227.422 88.952 226.926 89.016 226.51 89.144C227.438 87.8 228.35 86.488 229.246 85.208C230.142 83.928 230.958 82.76 231.694 81.704C232.462 80.648 233.07 79.784 233.518 79.112C233.966 78.408 234.19 77.976 234.19 77.816C234.19 77.528 234.046 77.384 233.758 77.384C233.438 77.384 233.038 77.64 232.558 78.152C232.078 78.632 231.55 79.256 230.974 80.024C230.398 80.76 229.806 81.512 229.198 82.28L228.766 81.992C229.406 81.256 230.03 80.488 230.638 79.688C231.246 78.888 231.87 78.2 232.51 77.624C233.15 77.048 233.822 76.76 234.526 76.76C234.878 76.76 235.198 76.856 235.486 77.048C235.806 77.208 235.966 77.48 235.966 77.864C235.966 78.216 235.822 78.648 235.534 79.16C235.278 79.64 234.926 80.2 234.478 80.84C234.03 81.448 233.518 82.136 232.942 82.904C232.398 83.64 231.822 84.44 231.214 85.304L231.262 85.592C232.958 83.736 234.382 82.232 235.534 81.08C236.718 79.928 237.694 79.048 238.462 78.44C239.262 77.8 239.95 77.368 240.526 77.144C241.134 76.888 241.71 76.76 242.254 76.76C242.99 76.76 243.518 76.92 243.838 77.24C244.158 77.528 244.318 77.928 244.318 78.44C244.318 79.208 244.094 80.024 243.646 80.888C243.198 81.72 242.638 82.552 241.966 83.384C241.326 84.184 240.67 84.936 239.998 85.64C239.358 86.312 238.814 86.888 238.366 87.368C237.918 87.848 237.694 88.168 237.694 88.328C237.694 88.52 237.742 88.664 237.838 88.76C237.966 88.856 238.27 88.904 238.75 88.904C239.934 88.904 241.054 88.536 242.11 87.8C243.198 87.064 244.238 86.168 245.23 85.112C246.222 84.024 247.15 82.952 248.014 81.896L248.398 82.232C247.534 83.256 246.59 84.328 245.566 85.448C244.542 86.568 243.47 87.512 242.35 88.28C241.23 89.048 240.078 89.432 238.894 89.432Z" fill="#EA2121"/>
<path d="M37 90.35C33.5 90.35 30.9 89.85 29.2 88.85C27.5 87.75 26.4 86.55 25.9 85.25C25.4 83.95 25.15 82.95 25.15 82.25C25.15 80.95 25.6 79.85 26.5 78.95C27.4 78.05 28.65 77.6 30.25 77.6C31.05 77.6 31.8 77.85 32.5 78.35C33.1 78.75 33.4 79.4 33.4 80.3C33.4 81.3 33.05 82.05 32.35 82.55C31.65 82.95 30.85 83.15 29.95 83.15C29.25 83.15 28.65 83.1 28.15 83C27.65 82.8 27.4 82.7 27.4 82.7C27.4 84 28.05 85.35 29.35 86.75C30.65 88.05 32.85 88.7 35.95 88.7C40.55 88.7 44.75 87.4 48.55 84.8C52.35 82.1 55.95 78.65 59.35 74.45C62.75 70.25 66.1 65.75 69.4 60.95C72.7 56.15 76.15 51.55 79.75 47.15C84.55 41.25 89.45 35.75 94.45 30.65C99.45 25.45 104.55 21 109.75 17.3C114.95 13.5 120.25 10.85 125.65 9.35C126.45 9.14999 126.9 9.29999 127 9.8C127.1 10.3 126.75 10.65 125.95 10.85C121.65 12.05 117.45 14.35 113.35 17.75C109.25 21.15 105.2 25.3 101.2 30.2C97.3 35 93.35 40.15 89.35 45.65C85.45 51.05 81.45 56.4 77.35 61.7C73.35 67 69.2 71.8 64.9 76.1C60.6 80.4 56.15 83.85 51.55 86.45C46.95 89.05 42.1 90.35 37 90.35ZM90.1 57.5C84.2 57.5 79.6 56.7 76.3 55.1C73 53.5 71.35 51.35 71.35 48.65C71.35 47.25 71.8 46.15 72.7 45.35C73.6 44.45 74.6 43.85 75.7 43.55C76.9 43.15 77.85 42.95 78.55 42.95C79.15 42.95 79.45 43.15 79.45 43.55C79.45 43.85 79.2 44.05 78.7 44.15C77.4 44.35 76.2 45 75.1 46.1C74.1 47.1 73.6 48.05 73.6 48.95C73.6 50.25 74.85 51.75 77.35 53.45C79.95 55.15 83.95 56 89.35 56C92.05 56 95.15 55.4 98.65 54.2C102.15 52.9 105.5 51 108.7 48.5C112 45.9 114.7 42.75 116.8 39.05C118.9 35.25 119.95 30.85 119.95 25.85C119.95 20.25 117.45 16.3 112.45 14C107.55 11.6 100.8 10.4 92.2 10.4C85.1 10.4 78.35 11.45 71.95 13.55C65.55 15.65 59.85 18.35 54.85 21.65C49.95 24.95 46.05 28.5 43.15 32.3C40.35 36.1 38.95 39.7 38.95 43.1C38.95 46.5 39.75 48.95 41.35 50.45C43.05 51.95 45.05 52.7 47.35 52.7C50.15 52.7 52.95 51.85 55.75 50.15C58.65 48.35 61.35 46.1 63.85 43.4C66.35 40.6 68.6 37.7 70.6 34.7C72.6 31.6 74.2 28.75 75.4 26.15C76.6 23.55 77.25 21.55 77.35 20.15C77.45 19.15 77.65 18.65 77.95 18.65C78.35 18.65 78.6 19 78.7 19.7C79 22.8 78.45 26.35 77.05 30.35C75.75 34.25 73.7 38.05 70.9 41.75C68.2 45.35 64.85 48.35 60.85 50.75C56.85 53.15 52.4 54.35 47.5 54.35C44.4 54.35 41.9 53.4 40 51.5C38.1 49.5 37.15 46.65 37.15 42.95C37.15 39.35 38.6 35.6 41.5 31.7C44.4 27.7 48.4 24 53.5 20.6C58.6 17.2 64.45 14.45 71.05 12.35C77.75 10.15 84.8 9.04999 92.2 9.04999C100.9 9.04999 107.75 10.05 112.75 12.05C117.85 14.05 121.45 16.7 123.55 20C125.75 23.2 126.85 26.6 126.85 30.2C126.85 33 125.9 36 124 39.2C122.2 42.4 119.65 45.4 116.35 48.2C113.05 50.9 109.15 53.15 104.65 54.95C100.25 56.65 95.4 57.5 90.1 57.5Z" fill="#EA2121"/>
</g>
<defs>
<clipPath id="clip0_1_2">
<rect width="298" height="101" fill="white"/>
</clipPath>
</defs>
</svg>
